<svg width="82" height="90" viewBox="0 0 82 90" fill="none" xmlns="http://www.w3.org/2000/svg">
<path fill-rule="evenodd" clip-rule="evenodd" d="M77.4034 10.4933C76.5923 12.0109 72.5962 12.7199 70.745 12.2847C68.6307 11.9943 65.7095 10.6521 65.9538 8.52108L78.4506 8.5441C78.4645 9.5889 78.0562 10.0936 77.4034 10.4933V10.4933ZM11.3906 12.2839C10.1578 12.5806 8.65909 12.4192 7.45494 12.0731C6.59208 11.825 5.18415 11.3496 4.73361 10.4896C4.10065 10.1182 3.64081 9.55268 3.68931 8.52334L16.1833 8.52279C16.417 10.6594 13.4871 11.9981 11.3906 12.2839ZM21.9659 8.52663L25.3546 8.48986L25.3944 5.93189C30.7864 5.93184 33.7815 5.85166 36.9516 10.145C37.5004 10.8883 38.577 12.6327 38.4301 13.7971L38.8048 17.9298C38.9361 39.2475 38.6483 60.7811 38.8081 82.0905C38.8176 83.3688 38.9938 83.8387 38.4653 84.1941L36.0338 84.1952L32.2929 84.1963L31.8907 84.3753L31.8903 87.88L31.8912 89.8246C32.2005 90.07 31.7903 89.9316 32.4008 90L35.8503 90L39.343 90L42.7925 90L46.2853 90L49.7348 89.9996C50.5294 89.8927 50.1227 90.2149 50.261 89.4845C50.2728 89.4222 50.244 88.5629 50.2434 88.4183L50.2444 87.88L50.2438 84.3862L49.9183 84.1948L43.3299 84.2056L43.7061 13.8001C43.5586 12.6433 44.6316 10.8911 45.1831 10.1454C46.0181 9.01622 46.5827 8.32625 47.8064 7.53264C50.5 5.78562 53.0801 5.91238 56.7441 5.93456L56.7425 8.49133L60.1481 8.52551L63.8111 8.54305C64.1043 12.1036 67.1276 13.8778 70.6478 14.3877L74.0675 14.3693C76.5514 13.5452 76.8581 13.7593 78.7235 12.2953C79.1744 11.9414 79.8403 11.0817 80.1427 10.3961C80.8085 8.88631 79.8967 8.41405 81.7255 8.56697L81.7085 3.34072C81.2378 0.983558 80.4622 1.04823 78.8553 0H59.6781C59.2991 0.25193 58.9362 0.336437 58.497 0.603114C56.762 1.65627 58.0896 1.32463 54.4316 1.31859C52.252 1.31501 50.4685 1.4465 48.542 2.12615C44.6307 3.50614 43.4363 5.14463 41.4422 7.5871L41.0678 7.96823C40.561 7.4991 40.0097 6.65208 39.5585 6.09789C38.2477 4.48795 35.7562 2.90107 33.5919 2.12725C29.6953 0.734058 25.9539 1.67261 24.6128 1.2436L22.4574 0H3.27615C1.96623 0.860435 0.937814 1.03398 0.520191 2.87279C0.233125 4.13657 0.402712 7.08609 0.402712 8.52497C2.3514 8.52577 1.2517 8.87182 2.04574 10.5173C2.53211 11.5252 3.11484 12.0672 3.8155 12.5949C7.60633 15.4503 14.4607 15.1635 17.4375 11.2235C18.1449 10.2872 18.0497 9.86649 18.2391 9.1965C18.4857 8.32371 17.9099 8.52482 21.9659 8.52661V8.52663Z" fill="white"/>
</svg>
