<svg width="102" height="80" viewBox="0 0 102 80" fill="none" xmlns="http://www.w3.org/2000/svg">
<path fill-rule="evenodd" clip-rule="evenodd" d="M40.3785 37.4461C44.6387 34.7048 47.8825 32.5904 47.9534 32.4646L48.0099 32.3641L48.1208 32.3238C48.5232 32.1773 48.8705 31.9492 49.2138 31.7237C49.8307 31.3183 50.4366 30.9203 51.3904 30.8939L51.5238 30.8902L51.6194 30.9833C51.878 31.2352 52.0302 31.4019 52.0983 31.6639C52.1621 31.9095 52.1288 32.1822 52.0153 32.6373L51.9804 32.777L51.8528 32.8418C51.7436 32.8972 51.6848 32.9135 51.6422 32.9253L51.4573 33.0898C51.3659 33.1711 51.3258 33.2061 51.297 33.2312L51.2503 33.2719C51.2312 33.3077 51.1966 33.3682 51.1112 33.4898L51.0744 33.5423L51.0213 33.5756C44.0298 37.9667 37.0114 42.4379 29.9909 46.9105C28.4894 47.867 26.9378 48.8554 23.9191 50.7763L23.9194 50.7768L21.7659 52.1909L21.7327 52.2041C21.4405 52.3202 21.2207 52.47 21.0238 52.6041C20.5157 52.9501 20.1306 53.2123 19.1177 52.9105L18.9641 52.8647L18.9109 52.7146C18.4333 51.3668 18.8983 51.0831 19.7709 50.5508C19.8486 50.5035 19.9295 50.4541 19.9978 50.4113C21.8772 49.2325 32.7379 42.3628 40.3785 37.4461L40.3785 37.4461ZM62.1123 66.5272C63.269 65.226 64.183 63.7571 64.5836 62.3286L64.591 62.3041C64.7839 61.7834 64.9529 61.2416 65.0965 60.6674C65.2147 60.1946 65.3165 59.6985 65.4011 59.1729L32.1815 59.1811L32.2753 59.9979C32.9678 64.4996 35.0259 68.0908 37.8356 70.7126C40.0394 72.7691 42.7064 74.2309 45.5404 75.0696C48.3761 75.9086 51.3789 76.1238 54.2525 75.6863C57.9521 75.1231 61.4353 73.4769 64.0661 70.687C64.3156 70.4225 64.5559 70.188 64.7905 69.959C65.252 69.5087 65.6911 69.0802 66.1454 68.4655C68.581 65.17 68.9874 63.1986 69.7572 59.4636L69.8087 59.2137L67.7829 59.1717C67.6241 60.1703 67.4425 61.0718 67.2023 61.9169C66.9393 62.8418 66.6063 63.6961 66.1566 64.5316C64.7757 67.097 62.9696 69.328 60.6427 70.9682C58.5487 72.4443 56.0372 73.4407 53.0401 73.7707C52.8764 73.7887 52.7542 73.8045 52.6295 73.8206C51.5783 73.9563 50.3813 74.1109 49.9311 73.2089C49.5758 72.4972 49.6851 72.1167 50.1907 71.8669C50.5249 71.7019 51.0444 71.6448 51.7457 71.5679C53.138 71.4154 55.2931 71.1791 57.8497 69.8894C59.3239 69.1456 60.8584 67.9379 62.1123 66.5272H62.1123ZM75.902 44.2271C67.5396 38.8995 59.1741 33.5699 51.0117 28.2536C43.4679 33.112 35.9657 37.8936 28.4607 42.6769C23.4708 45.8573 18.4795 49.0386 13.5014 52.2259H13.5001C13.3222 52.3388 13.0689 52.4947 12.7634 52.6828C11.7061 53.3336 10.0215 54.3705 9.0739 55.0808L92.4727 54.8176C87.0366 51.3207 81.4699 47.7742 75.902 44.2271V44.2271ZM8.06372 50.7865C8.45883 50.5468 8.8452 50.3125 9.16674 50.1019L9.16802 50.1006C9.71496 49.7468 11.7312 48.4649 14.5714 46.6593C25.2463 39.8727 47.6603 25.6228 48.7469 24.6212V3.22491C48.7469 2.89509 48.7309 2.55049 48.7141 2.18768C48.698 1.8403 48.6811 1.47666 48.6757 1.09769C48.6705 0.726011 48.6772 0.355068 48.7077 0H52.9315C52.9472 0.206394 52.9555 0.418476 52.9586 0.63352C52.9651 1.09511 52.9474 1.56222 52.9305 2.01166C52.9176 2.35433 52.905 2.68612 52.905 3.02765V24.5812C61.0541 28.7729 70.9795 35.4818 80.5333 41.9399C86.2819 45.8257 91.8955 49.6203 96.9235 52.7295C97.3075 52.9669 97.4594 53.0604 97.5975 53.1452C99.0329 54.0269 100.639 55.0134 101.732 55.8993L101.816 55.9674L101.84 56.0707C102.309 58.0716 101.708 58.825 100.537 59.0968C99.8871 59.2476 99.0667 59.2226 98.1598 59.1951C97.7879 59.1838 97.4008 59.172 97.0154 59.172L73.9361 59.2353L72.7892 65.1421L72.7085 65.2131C72.3607 65.5189 72.1853 65.9608 71.9734 66.4946L71.973 66.4944C71.8069 66.9134 71.6199 67.3842 71.3077 67.9128C71.1396 68.1973 70.9426 68.5005 70.7378 68.8157C70.3397 69.4286 69.9112 70.0882 69.7045 70.5792L69.681 70.6348L69.638 70.6784C69.3556 70.9641 69.1243 71.2463 68.8906 71.5315C68.5897 71.8986 68.2848 72.2706 67.8515 72.6783C67.6567 72.8616 67.5476 72.9618 67.439 73.0615C66.9071 73.5499 66.3593 74.0529 65.9319 74.6232L65.8789 74.6939L65.7917 74.7273C65.4545 74.8561 64.935 75.2599 64.4212 75.6592C64.0115 75.9776 63.6051 76.2935 63.2638 76.4913L63.0875 76.5934C62.1993 77.1088 61.2992 77.6311 60.2529 78.063C58.4373 78.9503 56.1554 79.5645 53.7492 79.8383C51.4027 80.1054 48.9329 80.0499 46.6577 79.6098C41.8554 78.681 40.0473 77.3695 38.1161 75.9688C37.4585 75.4919 36.7861 75.0042 35.9676 74.5174L35.9245 74.4918L35.7514 74.2935C35.2997 73.776 34.933 73.3559 34.3719 72.883C34.0361 72.5999 33.816 72.308 33.5979 72.0187C33.3688 71.7146 33.1417 71.4134 32.7722 71.15L32.7215 71.1139L32.6872 71.0582C32.1949 70.2582 31.8593 69.7528 31.5921 69.3503C30.9625 68.4022 30.7046 68.0139 29.6673 65.7115C29.1778 64.6249 28.8419 63.563 28.5898 62.4564C28.3552 61.4264 28.1939 60.3651 28.0492 59.2122C25.3769 58.9968 17.6466 59.0718 11.1986 59.1343C8.16422 59.1637 5.41328 59.1903 3.60156 59.1827C3.26104 59.1813 2.97473 59.1901 2.73026 59.1977C1.72904 59.2286 1.36771 59.2398 0.439835 58.5513L0.371321 58.5004L0.337683 58.4203C0.1797 58.0441 0.0706462 57.7469 0.0240482 57.4116C-0.0226395 57.0754 -0.00304383 56.7195 0.0977526 56.2345L0.126737 56.0948L0.319854 55.9866C0.332285 55.9338 0.352525 55.874 0.383235 55.8065L0.425881 55.7126L0.516138 55.662C0.967117 55.4092 1.42894 55.1246 1.8855 54.831V54.8298C2.37055 54.518 2.83397 54.2081 3.27494 53.9128C3.58945 53.7023 3.95004 53.4807 4.31774 53.2549C4.91006 52.8911 5.52156 52.5155 5.98594 52.1545L5.98568 52.1541C6.57285 51.6907 7.33338 51.2294 8.06374 50.7865H8.06372Z" fill="white"/>
</svg>
