<svg width="104" height="58" viewBox="0 0 104 58" fill="none" xmlns="http://www.w3.org/2000/svg">
<path fill-rule="evenodd" clip-rule="evenodd" d="M93.7094 19.9509L10.2776 19.9483C10.2761 20.2492 10.2777 20.5486 10.2794 20.8479C10.2813 21.1975 10.2832 21.5472 10.2807 21.8979L10.2803 21.9554C10.2771 22.3719 10.202 22.6923 10.2382 22.6954C11.371 22.7938 12.8401 22.7596 14.2098 22.7277C14.9766 22.7099 15.7167 22.6926 16.1179 22.6926H87.8841C89.1353 22.6926 90.3279 22.7275 91.2867 22.7556C91.9263 22.7742 92.4535 22.7897 92.859 22.7875C93.6616 22.7831 93.7253 22.6231 93.7206 21.7646C93.7195 21.5628 93.7197 21.3599 93.7201 21.1572C93.7206 20.7548 93.7212 20.3523 93.7094 19.9509ZM54.9762 58H50.5794V38.8894C50.5794 38.3611 50.5625 37.8092 50.5447 37.2282C50.5352 36.9183 50.5255 36.6004 50.5177 36.2746H55.0191C55.0142 36.5004 55.0086 36.7247 55.0031 36.9462C54.9895 37.4951 54.9762 38.0264 54.9762 38.5735V58V58ZM95.4943 55.6295L99.2545 53.3477L89.3628 37.0042C89.2203 36.7687 89.0784 36.5254 88.9347 36.2746H83.7133C83.9974 36.7372 84.2897 37.194 84.5738 37.6382C84.8696 38.1004 85.156 38.548 85.4391 39.0158L95.4943 55.6295H95.4943ZM72.0246 57.8021L76.2877 56.7246L71.6166 38.1952C71.4875 37.683 71.3691 37.1438 71.2442 36.576L71.1779 36.2746H66.544C66.6456 36.6529 66.7501 37.0279 66.8525 37.3953C66.9998 37.9241 67.1426 38.4361 67.2763 38.9664L72.0246 57.8021ZM10.0764 55.6295L6.31626 53.3477L16.208 37.0042C16.3505 36.7687 16.4924 36.5254 16.636 36.2746H21.8575C21.5733 36.7372 21.281 37.194 20.9969 37.6381C20.7012 38.1004 20.4148 38.548 20.1317 39.0158L10.0765 55.6295H10.0764ZM33.5462 57.8021L29.2831 56.7246L33.9541 38.1952C34.0833 37.683 34.2017 37.1438 34.3265 36.576L34.3929 36.2746H39.0267C38.9252 36.6529 38.8207 37.0279 38.7183 37.3953C38.5709 37.9241 38.4282 38.4361 38.2944 38.9664L33.5462 57.8021H33.5462ZM97.4307 21.0713L100.111 21.0752C100.111 16.9055 100.153 8.78491 100.141 3.79208L97.4298 3.8025C97.4055 5.99347 97.3723 9.44345 97.3627 12.7982C97.3534 16.0389 97.3662 19.204 97.4307 21.0713ZM6.54321 3.79055L3.81204 3.78767C3.69102 9.11914 3.71465 14.8377 3.73522 20.2246C3.73838 21.0409 3.88596 21.0788 4.68258 21.0759C5.0113 21.0747 5.33824 21.0778 5.66863 21.0809C5.96604 21.0838 6.26647 21.0867 6.56949 21.0861L6.54321 3.79055ZM93.7224 13.5285L10.2924 13.4823L10.2816 16.1794L93.7273 16.2409L93.7224 13.5285ZM93.7147 3.79367H10.3521L10.2929 9.75785L93.7112 9.76208L93.7147 3.79366V3.79367ZM0.419168 0.868569L0.634646 0.417911L1.104 0.264594C1.64546 0.0877903 26.6643 0.000137265 51.7203 1.58745e-07C76.9673 -0.000136948 102.363 0.0885396 102.899 0.264046L103.368 0.417647L103.583 0.868021C103.891 1.51073 104.414 21.3343 103.427 23.052C102.312 24.9932 100.06 24.9142 97.797 24.8349C97.4616 24.8232 97.1259 24.8114 96.8028 24.8073C96.7141 24.9237 96.6437 25.0252 96.5817 25.1147C95.7553 26.307 95.6819 26.4128 92.1369 26.4128H11.998C11.6994 26.4128 11.5386 26.4184 11.373 26.4241C10.5246 26.4538 9.58109 26.4868 8.79173 26.191C7.80197 25.82 7.48709 25.3368 7.15327 24.8079C6.84653 24.8122 6.52874 24.8231 6.21108 24.8339C3.9975 24.9094 1.78707 24.9849 0.64796 23.1755C-0.637766 21.1334 0.380171 0.950137 0.419185 0.868569H0.419168Z" fill="white"/>
</svg>
