<svg width="69" height="106" viewBox="0 0 69 106" fill="none" xmlns="http://www.w3.org/2000/svg">
<path fill-rule="evenodd" clip-rule="evenodd" d="M52.8095 19.8952L63.0433 19.882C63.1662 22.7934 63.5224 23.9254 62.3413 26.5894C61.6064 28.2469 60.207 30.1546 57.926 30.1775C55.712 30.1997 54.3119 28.287 53.5747 26.7361C52.3312 24.1206 52.6845 22.8421 52.8095 19.8952ZM16.1476 23.4115C16.3585 24.3857 16.1392 24.3483 16.009 25.2578C15.4286 27.1218 14.7542 28.2945 13.5853 29.2473C12.1817 30.3913 10.3481 30.4753 8.92633 29.5042C6.0179 27.5175 5.70739 24.2246 5.91845 19.8526L16.2367 19.8624C16.2878 20.9043 16.7492 22.4757 16.1476 23.4115H16.1476ZM9.12611 9.46166L8.5879 12.4166L7.17358 12.4219L7.25638 14.9772C2.01241 15.9965 1.63353 17.5162 0.808423 17.8057L0.187289 18.8398L0 19.879L3.86583 19.8919C3.71504 22.3992 3.44262 23.5478 4.24049 26.148C4.49715 26.9843 4.74391 27.0924 4.81107 28.011C5.74036 28.6485 5.61611 29.5326 7.2137 30.7967C13.0223 35.3929 16.6617 28.4791 17.3441 28.011C17.4001 27.2454 17.9863 26.1929 18.3414 24.3159C18.6532 22.6679 18.3811 21.4178 18.2893 19.8952L22.1734 19.8924C21.2668 16.6262 18.2572 15.5349 14.9112 14.9773L14.9817 12.4219H13.9543C14.6485 10.3708 16.5693 6.36288 19.1526 6.31389C20.4173 4.6957 29.3273 4.00513 31.5947 12.4208L31.5584 13.0259C31.9653 13.6213 31.8611 14.5562 31.8559 15.3195C31.6695 42.1656 31.853 69.6376 31.853 96.499C30.1995 96.4691 28.3357 96.4243 26.6936 96.5117C24.5867 96.6241 23.9445 97.2152 22.3799 97.6878C21.4216 98.6072 20.7717 98.7475 19.9468 99.8193C19.2719 100.696 18.6643 101.541 18.2387 102.689L17.6751 106H51.3288C50.898 102.166 50.1362 100.627 47.5465 98.4445L46.6865 97.6158C45.8171 97.5413 45.1606 97.0036 44.0993 96.7446C43.0975 96.5002 41.9741 96.4392 40.8718 96.4765L37.151 96.498V16.9766C37.151 16.0838 37.1301 15.1659 37.1506 14.2763C37.1592 13.904 37.1675 13.4701 37.225 13.1062L37.6864 12.0696C37.5632 10.791 38.6876 9.34431 39.3194 8.58432C40.1005 7.64484 40.8205 7.0321 42.072 6.37761C43.8899 5.4268 48.2407 4.68024 49.9138 6.24186C51.391 6.67307 52.438 7.67601 53.231 8.67413C54.4349 10.1896 54.2511 10.5721 55.0302 12.2148L54.1227 12.6289V15.0075C51.834 15.4382 49.2521 16.1545 47.7643 17.9212C47.1172 18.6897 47.1894 18.8625 46.8529 19.8481L50.7347 19.875C50.2908 24.4915 50.6662 24.018 51.7315 27.9481C52.382 28.6366 54.7697 33.6416 59.665 31.9906C63.4004 30.7309 64.2142 27.6097 65.1488 24.6357C65.3006 22.7366 65.3008 21.7745 65.1181 19.875L69 19.8629L68.8167 19.0469C68.6213 18.6348 68.3774 18.2398 68.1297 17.8553C66.439 16.4368 64.7199 15.4117 61.73 15.0075V12.5007L60.3705 12.4248L59.8063 9.7315C58.7635 7.01483 57.1841 4.76019 55.2885 3.27547C54.3144 2.5125 53.0902 1.64804 51.8682 1.14432C50.8067 0.706819 48.3224 0.317648 47.6574 1.35787e-05H44.3248L43.4337 0.328387C43.1285 0.408677 42.9151 0.421046 42.5831 0.49964C38.051 1.57236 36.5204 4.20256 34.5021 6.02629C33.717 5.31692 33.2285 4.57421 32.4994 3.88212C28.711 0.286343 25.2789 0.578989 24.0058 0H21.0837L20.7186 0.141536C19.8561 0.427415 19.0988 0.356236 16.8708 1.30342C13.9854 2.52994 11.5075 5.10963 10.0523 7.85889C9.48875 8.92362 9.77131 8.98399 9.12615 9.46167L9.12611 9.46166Z" fill="white"/>
</svg>
