<svg width="71" height="102" viewBox="0 0 71 102" fill="none" xmlns="http://www.w3.org/2000/svg">
<path fill-rule="evenodd" clip-rule="evenodd" d="M45.2217 95.5697L45.2503 88.7297L58.9199 88.6905L58.9894 97.9415L45.2274 97.9237L45.2217 95.5697ZM42.6163 70.8666C39.7619 72.0004 41.6925 75.381 43.9755 74.5177C46.3417 73.6228 44.9369 69.945 42.6163 70.8666ZM33.5673 33.066C34.0181 35.3959 38.0358 34.893 37.4217 32.1575C36.8942 29.8081 33.0333 30.3064 33.5673 33.066ZM55.5875 10.2991C54.5759 10.5684 52.0986 13.3499 51.3225 14.1047C48.431 16.9167 51.0668 18.4572 52.5423 18.1329C53.517 17.9187 56.0694 15.1141 56.8153 14.3712C59.7218 11.4765 56.9821 9.92768 55.5875 10.2991ZM50.0583 49.1896C50.1747 50.1229 53.1146 52.7471 53.7745 53.3791C54.3612 53.9409 54.9808 54.9272 56.1729 54.8736C57.266 54.8244 58.1373 53.9691 58.0729 52.7799C57.9965 51.3677 55.3061 49.2349 54.4302 48.3512C51.3958 45.2898 49.8846 47.7977 50.0583 49.1896ZM14.4606 10.3335C13.4506 10.642 12.6622 11.4496 13.1003 12.8551C13.2895 13.4621 16.3569 16.3063 16.9946 16.9641C19.6364 19.689 21.5684 17.3102 20.9231 15.4637C20.6896 14.7957 20.5026 14.8293 20.0287 14.3553C18.8151 13.1416 16.3773 9.74807 14.4606 10.3335H14.4606ZM20.8433 49.7868C21.8723 47.7284 19.4643 45.5697 17.0689 48.0461C16.3352 48.8044 13.5652 51.338 13.2224 52.0107C12.1996 54.0178 14.6372 56.1763 17.0295 53.7809C17.8574 52.9519 20.416 50.6415 20.8433 49.7868ZM34.7323 25.4418C38.9303 24.8905 42.2639 28.0976 42.7354 31.6795C43.9866 41.1847 29.4345 42.961 28.2645 33.4638C27.721 29.0528 30.908 25.944 34.7323 25.4418ZM33.1436 21.6709C29.7731 22.431 27.7759 24.0316 26.2753 26.1165C24.7158 28.2831 23.6875 31.7489 24.4628 35.0447C25.6897 40.2593 30.9981 45.006 37.8517 43.5681C43.2243 42.441 48.0412 36.9774 46.5634 30.2587C45.4047 24.9907 40.0196 20.1203 33.1436 21.6709ZM11.9999 95.5697L12.0458 88.6904L25.7284 88.7039L25.7753 97.8798L12.0098 97.9441L11.9999 95.5696V95.5697ZM14.2483 4.14113C19.0415 3.20172 21.6993 7.85822 26.273 11.9574C30.0219 15.3174 36.4615 16.3693 41.8413 13.8633C44.1276 12.7983 46.0544 10.8223 47.4091 9.43254C50.5694 6.19026 54.7408 0.992829 60.103 5.90726C67.4248 12.6177 64.5181 15.5402 58.8191 20.9352C58.049 21.6642 57.0472 22.5693 56.3026 23.4141C53.1902 26.945 51.8376 33.4064 54.3473 38.6721C55.6025 41.3053 57.1054 42.632 58.7657 44.2555C59.9869 45.4496 62.7866 47.966 63.601 49.4273C64.9574 51.8612 64.2846 55.2492 62.628 56.7565C61.6631 57.6344 60.9378 58.2789 60.1071 59.2328C59.3598 60.091 58.3295 60.7507 56.9361 61.0552C53.255 61.8601 51.2242 59.6171 49.7536 58.1604C48.064 56.4868 46.5935 54.8456 44.7257 53.1895C41.125 49.9971 34.5247 48.7747 29.2194 51.3191C26.5505 52.5991 25.3392 54.0976 23.6655 55.7769C22.3872 57.0595 20.0161 59.6721 18.3881 60.5097C15.5294 61.9804 12.5307 61.004 10.9162 59.214C9.52336 57.6699 7.17863 56.3836 6.71799 53.4526C5.98924 48.8162 10.7024 46.0887 14.7028 41.718C17.9774 38.1403 19.0077 31.6896 16.6482 26.4597C15.5367 23.9958 13.7523 22.4084 12.1895 20.9292C8.67133 17.5996 3.80543 13.6865 8.39482 8.40258C9.91124 6.65654 11.8814 4.60506 14.2483 4.14111V4.14113ZM25.775 59.396L25.7768 84.6699C22.1224 84.9368 17.4916 84.7146 13.8012 84.7028C6.32346 84.6788 8.63068 84.7957 7.93295 90.9433L4.15344 90.9392C4.10142 90.5872 4.49828 86.3702 1.45972 87.309C-0.450196 87.8991 0.0671834 90.7106 0.063531 92.7829C0.0601353 94.6969 -0.377466 97.7356 1.09208 98.4158C2.16987 98.9147 3.16935 98.4604 3.65747 97.8538C4.27612 97.0849 4.07894 96.0022 4.07894 94.9116L7.99042 94.9207C7.99042 96.9943 7.22293 101.109 9.30701 101.812C10.0604 102.067 24.0358 101.927 26.0581 101.934C30.176 101.948 29.7946 101.119 29.8098 97.3034L41.1952 97.2937C41.2171 102.841 40.5754 101.933 53.1829 101.933C54.763 101.933 60.4134 102.132 61.5412 101.843C63.8279 101.258 63.0121 97.0387 63.0121 94.9116L66.9244 94.9231C66.9244 95.9222 66.7553 97.0162 67.2573 97.7415C67.6942 98.3726 68.6484 98.8894 69.7616 98.4799C71.3983 97.8777 70.9427 94.8877 70.939 92.7829C70.9353 90.7023 71.4218 88.0395 69.6922 87.3624C68.6543 86.9561 67.6752 87.4494 67.2768 88.0442C66.7688 88.803 66.9985 89.9275 66.8491 90.9433L63.0695 90.9404C62.227 83.5198 66.807 84.6921 45.235 84.6921C45.2333 82.9683 45.542 80.7879 44.3927 79.9918C42.7467 78.8518 41.2712 80.101 41.2073 81.834C41.0703 85.5519 41.1936 89.5528 41.1936 93.3021L29.8089 93.3123L29.7993 55.4704C31.7532 54.6999 32.6754 53.8642 35.5016 53.8849C37.2696 53.8979 40.3328 54.5204 41.1936 55.7584C41.2197 57.9611 40.6013 64.4109 41.8868 65.5581C43.0919 66.6334 44.7475 65.8614 45.1096 64.6636C45.3494 63.8703 45.2266 60.4631 45.2283 59.3968C47.1684 60.3042 50.633 67.3094 58.9106 64.6207C61.6387 63.7344 65.7827 59.5922 66.9415 57.6432C69.2018 53.8415 68.7946 49.4988 66.2523 46.2005C64.8712 44.4088 62.96 42.7337 61.3306 41.1176C59.7458 39.5458 58.0969 38.2084 57.3135 35.1339C54.8725 25.5545 65.5865 22.5306 67.8322 16.1305C68.8416 13.2539 68.4956 10.507 67.2064 8.03198C66.3011 6.29408 63.9368 3.99132 62.4388 2.60233C58.0976 -1.42284 51.641 -0.355384 47.9516 3.20099C43.8015 7.20164 41.2904 11.1641 35.7035 11.2721C32.6424 11.3313 29.843 10.0517 28.3663 8.48553C26.7499 6.77139 25.0582 5.18269 23.3574 3.49388C19.6367 -0.200776 13.9989 -1.54226 8.90563 2.33957C4.87603 5.41075 1.37761 10.0488 2.96612 15.5295C3.90083 18.7546 5.38823 19.6206 7.10926 21.3833C10.5505 24.9079 15.0047 28.0638 13.8282 34.4592C13.5783 35.8173 13.0989 36.9733 12.4104 38.0561C10.9135 40.41 7.13044 43.2059 5.11 45.7564C2.43439 49.1339 1.67462 53.1506 3.90966 57.3997C4.90638 59.2946 9.27809 63.6822 11.9257 64.5783C20.37 67.4363 23.7702 60.3324 25.775 59.396V59.396Z" fill="white"/>
</svg>
