<svg width="95" height="103" viewBox="0 0 95 103" fill="none" xmlns="http://www.w3.org/2000/svg">
<path fill-rule="evenodd" clip-rule="evenodd" d="M26.6914 97.6597C26.6914 94.2665 28.9136 94.8436 32.5383 94.8257L64.8683 94.8396C68.2919 94.8396 68.3204 95.5342 68.3204 98.8716L26.6914 98.8751V97.6597ZM66.3167 73.349C66.7566 75.5667 70.6064 75.3072 70.2251 72.5868C69.8814 70.1358 65.7656 70.5703 66.3167 73.349ZM47.0199 37.6633C44.6469 38.2666 45.3804 42.1986 48.0325 41.5433C48.9913 41.3064 49.7082 40.1832 49.4339 39.0799C49.1886 38.0933 48.1047 37.3876 47.0199 37.6633ZM46.6618 21.834C44.9441 22.6212 45.5094 26.0205 45.5168 28.1433C45.5203 29.1528 45.3097 30.9305 45.7356 31.74C46.1364 32.5017 47.2555 33.1175 48.3396 32.614C50.0959 31.7983 49.508 28.4089 49.5085 26.335C49.5087 25.3366 49.6419 23.5364 49.2823 22.7398C48.9146 21.9255 47.8474 21.2906 46.6618 21.834ZM32.9543 33.5679C31.7649 24.8479 38.2585 17.9528 45.6 16.9761C54.2019 15.8318 61.2074 22.3269 62.0563 29.7528C63.0536 38.4783 56.8676 45.3236 49.3528 46.2746C40.6832 47.3716 33.9677 40.9973 32.9543 33.568V33.5679ZM28.9807 33.9698C30.0037 43.4086 38.9508 51.5678 49.7004 50.2671C59.104 49.1293 67.4642 40.4213 66.0294 29.3543C64.659 18.784 55.1201 11.641 45.2261 12.9597C35.5913 14.2438 27.7646 22.7492 28.9807 33.9698ZM38.3645 84.4439L56.649 84.4397L59.5886 90.7888L35.4667 90.8155L38.3646 84.4439H38.3645ZM34.3344 55.7187C35.9444 56.2143 37.7163 57.345 39.8492 57.9612C40.5485 61.7029 40.6284 63.2484 46.1089 63.2272H50.0995C53.3818 63.2272 55.0391 61.5775 55.0718 58.2805C55.4904 57.5835 57.0446 57.3405 57.8304 57.0166C58.8294 56.6047 59.8592 55.9754 60.6774 55.7191C64.8359 59.5287 67.0702 56.7364 69.6573 54.0621C70.639 53.0473 72.3556 51.6415 72.9652 50.1474C73.8744 47.9193 72.63 45.8921 71.4195 45.0735L73.7008 39.2453C79.6852 39.0139 78.8746 35.1719 78.9045 30.4181L85.823 30.3468C91.4797 30.3534 90.9662 30.344 90.9354 37.3853L90.9238 70.8289L78.6385 70.8895C76.9498 70.8895 75.5592 71.1236 75.6041 72.9423C75.6628 75.3193 79.0023 74.9351 81.6321 74.911L90.9364 74.94C90.9321 81.4693 91.0333 80.3749 81.6321 80.431L7.39277 80.4134C3.6164 80.4176 4.101 79.1771 4.07468 75.0001C7.77072 74.6963 33.3355 74.8783 38.9244 74.9133L56.4865 74.911C58.4244 74.911 60.8584 75.2143 60.902 72.9443C60.9549 70.1896 56.8152 70.9072 53.4929 70.8895C37.3044 70.8032 20.1148 71.1171 4.10788 70.859C3.92397 58.8384 4.04176 45.1179 4.07649 32.9652C4.08537 29.851 6.66769 30.3196 10.3863 30.3468L16.1104 30.3921C16.1317 35.3101 15.3138 38.9008 21.3014 39.2551L23.5795 45.0565C22.4234 45.8784 21.1856 47.7936 21.9894 50.0039C22.5396 51.5171 24.2855 52.9616 25.2613 53.9539C27.6964 56.4302 30.2697 59.7275 34.3345 55.7188L34.3344 55.7187ZM44.0523 4.09987C45.7449 3.98347 49.4416 3.87589 51.0301 4.18445C51.2422 7.72596 50.5223 8.15841 53.3937 8.953C57.5055 10.0909 60.1599 12.2871 61.4346 12.0512C63.0158 11.7586 63.1581 10.1606 64.4812 9.71257C65.7378 10.558 67.9905 13.217 69.2572 14.4131C68.9139 15.8074 67.2359 16.1573 66.9377 17.5712C66.6759 18.8123 67.9098 20.2388 68.4447 21.3204C71.7352 27.9736 68.3677 27.7885 74.7077 28.0824C75.1151 28.9282 74.8816 33.996 74.817 35.1396C72.7234 35.3588 71.046 34.6396 70.2776 36.6091C69.7077 38.0698 69.4779 39.4661 68.8292 40.9692C67.7041 43.5762 65.0718 45.7796 69.2492 48.3523C69.0039 49.2601 64.8925 53.2484 64.2696 53.4791C63.3521 52.8237 62.2738 50.9403 60.7547 51.1584C60.0085 51.2655 57.8295 52.6711 56.7539 53.1229C55.4283 53.6797 53.3045 54.1151 52.2626 54.6225C50.5232 55.4698 51.29 57.4664 51.0164 58.6322C50.8824 59.203 51.1074 58.7045 50.8214 59.0461C50.6041 59.2319 44.3181 59.4483 44.1108 58.9181C44.0987 58.8871 44.059 58.8219 44.0459 58.7817C44.0321 58.7397 44.0062 58.682 43.9937 58.6326L43.9024 56.2789C43.5891 54.0453 40.9959 54.3039 38.1173 53.0667C37.1482 52.6502 34.8757 51.1886 34.1042 51.1361C32.717 51.0419 31.6511 52.8388 30.7423 53.4791C29.9599 53.1855 26.3195 49.4123 25.7804 48.6365C26.2934 47.1837 28.2218 46.8637 28.0991 45.0466C28.0592 44.4555 26.5521 41.8237 26.1821 40.9698C25.545 39.4991 25.2578 37.7777 24.6738 36.4677C23.8723 34.6699 22.1688 35.3394 20.154 35.1427L20.1136 30.9561C20.1422 27.9469 19.7417 28.1402 20.7643 27.9956C23.2799 27.6399 24.0137 29.2621 25.1038 25.2731C26.1471 21.4555 28.3425 18.8719 28.0716 17.5734C27.7521 16.0425 26.1178 15.8541 25.7546 14.4139C27.0599 13.188 29.2239 10.5995 30.529 9.71172C31.7009 10.1302 32.1624 11.9083 33.7547 12.0757C34.784 12.1839 37.9388 9.96965 41.7766 8.91279C44.6007 8.13506 43.7096 7.42787 44.0523 4.09987ZM34.3344 7.50129C33.7145 7.12392 32.0413 4.85808 29.0932 5.98084C27.7183 6.50445 24.8702 9.84271 23.4766 11.1862C19.7129 14.8148 23.0158 17.3351 23.5578 18.4994C22.7621 19.998 21.7438 22.1364 21.3665 23.9839C19.5774 24.0783 17.6129 24.1909 16.6597 26.3415C13.7685 26.3415 5.60366 25.9483 3.55972 26.9003C2.09421 27.5829 0.956453 28.8467 0.388095 30.5442C-0.249339 32.448 0.0938611 60.5613 0.0797737 64.1069C0.0618373 68.6273 0.00597541 73.2667 0.0842642 77.7773C0.161309 82.2203 2.63487 84.4101 6.99323 84.4437C15.8967 84.5124 25.0102 84.1998 33.9216 84.4795L31.0005 90.8092C26.7475 90.8117 24.6248 91.4023 23.2075 94.497C22.5146 96.0097 22.7175 97.8757 22.7006 99.67C22.6811 101.753 23.0133 102.842 25.1442 102.882C32.5406 103.02 40.0918 102.877 47.506 102.877C54.8742 102.877 62.7655 103.153 70.0676 102.879C72.1659 102.8 72.3302 101.49 72.3088 99.4684C72.2788 96.6391 72.5941 93.316 69.038 91.4567C67.637 90.7242 65.7486 90.8092 64.01 90.8098L61.124 84.4495C70.1485 84.3633 79.1992 84.5452 88.2188 84.4457C92.5988 84.3974 94.8739 81.9754 94.9316 77.5736C95.1055 64.2979 94.8902 50.1726 94.9136 36.7826C94.9168 34.8933 95.1712 32.055 94.5523 30.4082C93.9618 28.8371 92.8979 27.5274 91.2975 26.8508C89.2494 25.985 81.1786 26.3285 78.3513 26.3285C77.5778 24.6275 76.0153 24.1617 73.6574 23.9685C73.2799 22.1769 72.217 19.9439 71.465 18.4994C71.9009 17.5855 74.0208 16.1533 72.985 13.1376C72.4676 11.6309 66.9206 6.31034 65.7677 5.93223C62.8503 4.97549 61.4624 6.99319 60.6774 7.50167C59.7212 7.18956 58.7579 6.58194 57.9078 6.22884C57.1606 5.91845 55.9687 5.46773 55.0614 5.27944C55.0595 -0.613737 50.9744 0.0216814 47.506 0.0216814C44.0292 0.0216814 39.9526 -0.636005 39.9521 5.29323C38.9641 5.49591 37.8945 5.89435 36.9686 6.28647C36.0595 6.67153 35.1728 7.24811 34.3345 7.50126L34.3344 7.50129Z" fill="white"/>
</svg>
