<svg width="57" height="105" viewBox="0 0 57 105" fill="none" xmlns="http://www.w3.org/2000/svg">
<path fill-rule="evenodd" clip-rule="evenodd" d="M23.4633 93.144L33.5375 93.1482L33.5355 101.619H23.4592L23.4776 94.4219L23.4612 93.142L23.4633 93.144ZM27.2237 40.8205C32.113 40.0252 36.1156 43.6621 36.7704 47.7858C37.575 52.8456 33.9727 56.8036 29.8428 57.514C24.8447 58.3756 20.9304 54.7221 20.2345 50.5218C19.4012 45.4909 23.0302 41.4998 27.2237 40.8184V40.8205ZM16.8682 50.6522C17.599 56.613 23.024 61.6998 29.851 60.9314C35.7872 60.2624 41.0316 54.6641 40.1531 47.7858C39.3792 41.7256 34.0486 36.5518 27.1313 37.4176C21.0946 38.1735 16.0082 43.6165 16.8703 50.6522H16.8682ZM20.1668 77.0843C19.7111 72.1943 23.3524 68.1783 27.6855 67.8221C38.9543 66.9004 40.0792 83.6188 29.305 84.6564C24.4691 85.1224 20.5753 81.4689 20.1668 77.0843ZM16.9011 77.9293C17.7242 83.7886 23.1657 88.8774 30.0316 87.9744C35.9267 87.1998 41.1178 81.5704 40.1305 74.6714C39.2725 68.6733 33.8864 63.5245 26.9527 64.5062C20.9468 65.3574 15.8994 70.7901 16.9011 77.9273V77.9293ZM20.1668 22.9485C19.6516 18.0461 23.3524 14.1337 27.6691 13.6904C32.5461 13.1913 36.4317 16.938 36.8402 21.2709C37.302 26.165 33.6093 30.1064 29.305 30.5186C24.4301 30.9866 20.6266 27.3186 20.1668 22.9464V22.9485ZM27.1888 10.3517C21.1254 11.1015 16.0123 16.4906 16.8621 23.5201C17.5867 29.5078 23.0035 34.6878 29.8736 33.8552C35.8282 33.1323 41.0439 27.621 40.1469 20.7034C39.3649 14.6846 34.0424 9.50463 27.1888 10.3517ZM11.7285 8.56225L45.2559 8.57675C45.418 23.2612 45.184 38.4386 45.2559 53.1873C45.3154 65.1731 45.0937 77.95 45.2702 89.7805C34.2826 89.7163 22.5827 89.9317 11.7388 89.7639L11.7244 88.7138C11.5253 62.8306 11.7388 36.0382 11.7388 10.0493L11.7244 8.56225H11.7285ZM3.68226 69.4749L8.38069 69.477L8.3889 86.3941L6.44713 86.3796L3.68226 69.477V69.4749ZM48.6263 69.479L53.3452 69.4811L50.5598 86.3776L48.6139 86.3921L48.6283 70.9495V69.479H48.6263ZM3.66173 42.3966L8.38069 42.3945L8.3889 59.3242L6.44918 59.3097L3.66173 42.3945V42.3966ZM48.6119 42.3925L53.3473 42.3966L50.5578 59.3097L48.6078 59.3242L48.6263 43.4571L48.6098 42.3904L48.6119 42.3925ZM48.6263 13.6428L53.3452 13.6552L50.5762 30.5703L48.618 30.5538L48.6242 13.6428H48.6263ZM3.68226 13.649L8.38479 13.6511L8.37453 30.5807L6.42455 30.4171L3.68226 13.649ZM18.6253 5.18834C19.3765 3.28288 20.4644 3.50864 22.8413 3.49828L34.3688 3.49621C36.6144 3.50864 37.6982 3.3533 38.3611 5.18627L18.6253 5.19041V5.18834ZM8.3889 10.2668C-2.18411 10.1757 -0.488651 9.26437 1.42849 20.6847C3.86083 35.1869 2.31727 33.8987 8.37658 33.9505L8.37453 39.0124C4.60593 39.0455 0.118922 38.2667 0.0327123 40.7107C-0.0227082 42.2558 1.11239 47.5807 1.41412 49.4323C1.88622 52.3464 2.40348 55.1839 2.85711 58.1332C3.62273 63.0999 3.24505 62.7416 8.393 62.696L8.37453 66.0803C6.69754 66.0948 5.02672 66.0782 3.34973 66.0844C1.70149 66.0906 0.110712 65.9808 0.0368176 67.7786C-0.0124451 68.9654 2.4589 82.7033 2.8489 85.2032C3.61657 90.1243 3.30458 89.8053 8.38684 89.7618C8.38684 93.5665 9.04779 93.1316 12.5721 93.1564C15.0866 93.173 17.6092 93.1461 20.1237 93.1461C20.0991 96.0064 19.8507 100.629 20.1237 103.301C20.3043 105.068 21.7535 105.018 23.4694 104.993L33.5313 104.989C38.1436 105.039 36.9654 103.641 36.8771 93.144C39.3936 93.144 41.9122 93.1647 44.4287 93.1585C47.9776 93.1482 48.6139 93.5562 48.6139 89.7618C53.7311 89.766 53.3637 90.1636 54.1478 85.2136C54.6137 82.2767 55.1248 79.4496 55.5867 76.5127C56.9927 67.5611 58.5671 66.0906 53.6511 66.0782C51.9761 66.074 50.3012 66.0782 48.6263 66.0782L48.6139 62.6939C53.7332 62.6981 53.3739 63.1185 54.1457 58.1291C54.5994 55.2005 55.1392 52.3609 55.5846 49.4303C56.9291 40.6071 58.6574 39.0227 53.6511 39.0103C51.9761 39.0061 50.3012 39.0103 48.616 39.0103L48.6263 33.9484C53.8091 33.9442 53.2857 34.2984 54.1437 29.3836C54.6527 26.4653 55.0571 23.603 55.5784 20.6826C55.8597 19.1106 57.0379 13.125 56.9701 11.9589C56.8695 10.1881 55.2952 10.2399 53.649 10.2606C51.9782 10.2813 50.2848 10.2647 48.6119 10.2647C48.6304 4.47172 49.0573 5.18006 41.8403 5.17592C40.4466 -1.18045 34.8081 0.132658 28.5004 0.114018C22.1907 0.0953772 16.5398 -1.16596 15.1584 5.17592C7.95579 5.23184 8.37042 4.40752 8.3889 10.2647V10.2668Z" fill="white"/>
</svg>
