<svg width="84" height="61" viewBox="0 0 84 61" fill="none" xmlns="http://www.w3.org/2000/svg">
<path d="M-3.44502e-07 53.1187L-2.3219e-06 7.88123C-2.41669e-06 5.7126 0.876957 3.74202 2.28984 2.3142C3.70263 0.886295 5.65254 3.56762e-06 7.79835 3.47382e-06L76.2016 4.83818e-07C78.3475 3.90021e-07 80.2974 0.886292 81.7101 2.3142C83.123 3.742 84 5.7126 84 7.88122L84 53.1187C84 55.2873 83.123 57.258 81.7102 58.6858C80.2974 60.1137 78.3475 61 76.2016 61L7.79836 61C5.65255 61 3.70265 60.1137 2.28985 58.6858C0.87696 57.258 -2.49711e-07 55.2873 -3.44502e-07 53.1187ZM2.3574 7.88123L2.3574 53.1187C2.3574 54.6296 2.9699 56.0041 3.95663 57.0013C4.9433 57.9985 6.30333 58.6175 7.79836 58.6175L76.2016 58.6175C77.6967 58.6175 79.0567 57.9985 80.0434 57.0013C81.0301 56.0041 81.6426 54.6296 81.6426 53.1187L81.6426 7.88122C81.6426 6.37031 81.0301 4.99586 80.0434 3.9987C79.0567 3.0015 77.6967 2.38248 76.2016 2.38248L7.79835 2.38248C6.30334 2.38248 4.9433 3.00149 3.95662 3.9987C2.96991 4.99586 2.3574 6.3703 2.3574 7.88123ZM12.3046 50.1105L12.3046 40.6735C12.3046 39.9608 12.5922 39.3138 13.0555 38.8456C13.5188 38.3774 14.159 38.0867 14.8642 38.0867L29.1338 38.0867C29.8389 38.0867 30.4791 38.3773 30.9425 38.8456C31.4057 39.3138 31.6934 39.9608 31.6934 40.6735L31.6934 50.1105C31.6934 50.8231 31.4058 51.47 30.9425 51.9383C30.4791 52.4066 29.8389 52.6973 29.1338 52.6973L14.8642 52.6973C14.159 52.6973 13.5188 52.4065 13.0555 51.9383C12.5922 51.47 12.3046 50.8231 12.3046 50.1105ZM14.662 40.6735L14.662 50.1105C14.662 50.1655 14.6851 50.2162 14.7223 50.2538C14.7595 50.2914 14.8098 50.3148 14.8641 50.3148L29.1338 50.3148C29.1882 50.3148 29.2385 50.2914 29.2757 50.2538C29.3129 50.2162 29.336 50.1655 29.336 50.1105L29.336 40.6735C29.336 40.6185 29.3129 40.5677 29.2757 40.5301C29.2385 40.4925 29.1882 40.4692 29.1338 40.4692L14.8641 40.4692C14.8098 40.4692 14.7595 40.4925 14.7223 40.5301C14.6851 40.5677 14.662 40.6185 14.662 40.6735ZM52.3065 20.3266L52.3065 10.8896C52.3065 10.1769 52.5942 9.52986 53.0575 9.06166C53.5207 8.59345 54.161 8.30275 54.8661 8.30275L69.1358 8.30275C69.8409 8.30275 70.4811 8.59345 70.9444 9.06166C71.4077 9.52986 71.6954 10.1769 71.6954 10.8895L71.6954 20.3266C71.6954 21.0392 71.4077 21.6862 70.9444 22.1545C70.4811 22.6227 69.8409 22.9134 69.1358 22.9134L54.8661 22.9134C54.161 22.9134 53.5207 22.6227 53.0575 22.1545C52.5941 21.6862 52.3065 21.0391 52.3065 20.3266ZM54.6639 10.8896L54.6639 20.3266C54.6639 20.3815 54.687 20.4324 54.7242 20.47C54.7614 20.5076 54.8117 20.5309 54.8661 20.5309L69.1358 20.5309C69.1901 20.5309 69.2404 20.5076 69.2776 20.47C69.3148 20.4324 69.3379 20.3815 69.3379 20.3266L69.3379 10.8896C69.3379 10.8346 69.3148 10.7838 69.2776 10.7462C69.2404 10.7086 69.1901 10.6852 69.1358 10.6852L54.8661 10.6852C54.8117 10.6852 54.7614 10.7086 54.7242 10.7462C54.687 10.7838 54.6639 10.8346 54.6639 10.8896ZM52.3065 35.1988L52.3065 25.7618C52.3065 25.0491 52.5942 24.4021 53.0575 23.9339C53.5207 23.4657 54.161 23.175 54.8661 23.175L69.1358 23.175C69.8409 23.175 70.4811 23.4657 70.9444 23.9339C71.4077 24.4021 71.6954 25.0491 71.6954 25.7618L71.6954 35.1988C71.6954 35.9114 71.4077 36.5584 70.9444 37.0267C70.4811 37.4949 69.8409 37.7856 69.1358 37.7856L54.8661 37.7856C54.161 37.7856 53.5207 37.4949 53.0575 37.0267C52.5941 36.5584 52.3065 35.9114 52.3065 35.1988ZM54.6639 25.7618L54.6639 35.1988C54.6639 35.2538 54.687 35.3046 54.7242 35.3422C54.7614 35.3798 54.8117 35.4032 54.8661 35.4032L69.1358 35.4032C69.1901 35.4032 69.2404 35.3798 69.2776 35.3422C69.3148 35.3046 69.3379 35.2538 69.3379 35.1988L69.3379 25.7618C69.3379 25.7068 69.3148 25.656 69.2776 25.6184C69.2404 25.5808 69.1901 25.5575 69.1358 25.5575L54.8661 25.5575C54.8117 25.5575 54.7614 25.5808 54.7242 25.6184C54.687 25.656 54.6639 25.7069 54.6639 25.7618ZM52.3065 50.1105L52.3065 40.6735C52.3065 39.9608 52.5942 39.3138 53.0575 38.8456C53.5207 38.3774 54.161 38.0867 54.8661 38.0867L69.1358 38.0867C69.8409 38.0867 70.4811 38.3774 70.9444 38.8456C71.4077 39.3138 71.6954 39.9608 71.6954 40.6735L71.6954 50.1105C71.6954 50.8231 71.4077 51.4701 70.9444 51.9384C70.4811 52.4066 69.8409 52.6973 69.1358 52.6973L54.8661 52.6973C54.161 52.6973 53.5207 52.4066 53.0575 51.9384C52.5941 51.4701 52.3065 50.8231 52.3065 50.1105ZM54.6639 40.6735L54.6639 50.1105C54.6639 50.1655 54.687 50.2163 54.7242 50.2539C54.7614 50.2915 54.8117 50.3148 54.8661 50.3148L69.1358 50.3148C69.1901 50.3148 69.2404 50.2915 69.2776 50.2539C69.3148 50.2163 69.3379 50.1654 69.3379 50.1105L69.3379 40.6735C69.3379 40.6185 69.3148 40.5677 69.2776 40.5301C69.2404 40.4925 69.1901 40.4691 69.1358 40.4691L54.8661 40.4692C54.8117 40.4692 54.7614 40.4925 54.7242 40.5301C54.687 40.5677 54.6639 40.6185 54.6639 40.6735ZM32.4092 20.3266L32.4092 10.8896C32.4092 10.1769 32.6969 9.52986 33.1601 9.06166C33.6234 8.59345 34.2636 8.30276 34.9688 8.30276L49.2384 8.30276C49.9435 8.30276 50.5837 8.5934 51.0471 9.06166C51.5104 9.52986 51.798 10.1769 51.798 10.8896L51.798 20.3266C51.798 21.0392 51.5104 21.6862 51.0471 22.1545C50.5837 22.6227 49.9435 22.9134 49.2384 22.9134L34.9688 22.9134C34.2636 22.9134 33.6234 22.6227 33.1601 22.1545C32.6968 21.6862 32.4092 21.0391 32.4092 20.3266ZM34.7666 10.8896L34.7666 20.3266C34.7666 20.3815 34.7897 20.4324 34.8269 20.47C34.8641 20.5076 34.9144 20.5309 34.9688 20.5309L49.2384 20.5309C49.2928 20.5309 49.3431 20.5076 49.3803 20.47C49.4175 20.4324 49.4406 20.3815 49.4406 20.3266L49.4406 10.8896C49.4406 10.8346 49.4175 10.7838 49.3803 10.7462C49.3431 10.7086 49.2928 10.6852 49.2384 10.6852L34.9688 10.6852C34.9144 10.6852 34.8641 10.7086 34.8269 10.7462C34.7897 10.7838 34.7666 10.8346 34.7666 10.8896ZM32.4092 35.1988L32.4092 25.7618C32.4092 25.0491 32.6969 24.4021 33.1601 23.9339C33.6234 23.4657 34.2636 23.175 34.9688 23.175L49.2384 23.175C49.9435 23.175 50.5837 23.4656 51.0471 23.9339C51.5104 24.4021 51.798 25.0491 51.798 25.7618L51.798 35.1988C51.798 35.9114 51.5104 36.5584 51.0471 37.0267C50.5837 37.495 49.9435 37.7856 49.2384 37.7856L34.9688 37.7856C34.2636 37.7856 33.6234 37.4949 33.1601 37.0267C32.6968 36.5584 32.4092 35.9114 32.4092 35.1988ZM34.7666 25.7618L34.7666 35.1988C34.7666 35.2538 34.7897 35.3046 34.8269 35.3422C34.8641 35.3798 34.9144 35.4032 34.9688 35.4032L49.2384 35.4032C49.2928 35.4032 49.3431 35.3798 49.3803 35.3422C49.4175 35.3046 49.4406 35.2538 49.4406 35.1988L49.4406 25.7618C49.4406 25.7068 49.4175 25.656 49.3803 25.6184C49.3431 25.5808 49.2928 25.5575 49.2384 25.5575L34.9688 25.5575C34.9144 25.5575 34.8641 25.5808 34.8269 25.6184C34.7897 25.656 34.7666 25.7069 34.7666 25.7618ZM32.4092 50.1105L32.4092 40.6735C32.4092 39.9608 32.6969 39.3138 33.1601 38.8456C33.6234 38.3774 34.2636 38.0867 34.9688 38.0867L49.2384 38.0867C49.9435 38.0867 50.5837 38.3773 51.0471 38.8456C51.5104 39.3138 51.798 39.9608 51.798 40.6735L51.798 50.1105C51.798 50.8231 51.5104 51.4701 51.0471 51.9384C50.5837 52.4067 49.9435 52.6973 49.2384 52.6973L34.9688 52.6973C34.2636 52.6973 33.6234 52.4066 33.1601 51.9384C32.6968 51.4701 32.4092 50.8231 32.4092 50.1105ZM34.7666 40.6735L34.7666 50.1105C34.7666 50.1655 34.7897 50.2163 34.8269 50.2539C34.8641 50.2915 34.9144 50.3148 34.9688 50.3148L49.2384 50.3148C49.2928 50.3148 49.3431 50.2915 49.3803 50.2539C49.4175 50.2163 49.4406 50.1654 49.4406 50.1105L49.4406 40.6735C49.4406 40.6185 49.4175 40.5677 49.3803 40.5301C49.3431 40.4925 49.2928 40.4692 49.2384 40.4692L34.9688 40.4692C34.9144 40.4692 34.8641 40.4925 34.8269 40.5301C34.7897 40.5677 34.7666 40.6185 34.7666 40.6735ZM12.3046 20.3266L12.3046 10.8896C12.3046 10.1769 12.5922 9.52993 13.0555 9.06173C13.5188 8.59352 14.159 8.30276 14.8641 8.30276L29.1338 8.30276C29.8389 8.30276 30.479 8.59347 30.9425 9.06172C31.4057 9.52993 31.6934 10.1769 31.6934 10.8896L31.6934 20.3266C31.6934 21.0392 31.4058 21.6862 30.9425 22.1545C30.479 22.6227 29.8389 22.9134 29.1338 22.9134L14.8641 22.9134C14.159 22.9134 13.5188 22.6227 13.0555 22.1545C12.5922 21.6862 12.3046 21.0391 12.3046 20.3266ZM14.662 10.8896L14.662 20.3266C14.662 20.3815 14.6851 20.4324 14.7223 20.47C14.7595 20.5076 14.8098 20.5309 14.8641 20.5309L29.1338 20.5309C29.1882 20.5309 29.2385 20.5076 29.2757 20.47C29.3129 20.4324 29.336 20.3815 29.336 20.3266L29.336 10.8896C29.336 10.8346 29.3129 10.7838 29.2757 10.7462C29.2385 10.7086 29.1882 10.6852 29.1338 10.6852L14.8641 10.6852C14.8098 10.6852 14.7595 10.7086 14.7223 10.7462C14.6851 10.7838 14.662 10.8346 14.662 10.8896ZM12.3046 35.1988L12.3046 25.7618C12.3046 25.0491 12.5922 24.4021 13.0555 23.9339C13.5188 23.4657 14.159 23.175 14.8641 23.175L29.1338 23.175C29.8389 23.175 30.479 23.4656 30.9425 23.9339C31.4057 24.4021 31.6934 25.0491 31.6934 25.7618L31.6934 35.1988C31.6934 35.9114 31.4058 36.5584 30.9425 37.0267C30.479 37.495 29.8389 37.7856 29.1338 37.7856L14.8641 37.7856C14.159 37.7856 13.5188 37.4949 13.0555 37.0267C12.5922 36.5584 12.3046 35.9114 12.3046 35.1988ZM14.662 25.7618L14.662 35.1988C14.662 35.2538 14.6851 35.3046 14.7223 35.3422C14.7595 35.3798 14.8098 35.4032 14.8641 35.4032L29.1338 35.4032C29.1882 35.4032 29.2385 35.3798 29.2757 35.3422C29.3129 35.3046 29.336 35.2538 29.336 35.1988L29.336 25.7618C29.336 25.7068 29.3129 25.656 29.2757 25.6184C29.2385 25.5808 29.1882 25.5575 29.1338 25.5575L14.8641 25.5575C14.8098 25.5575 14.7595 25.5808 14.7223 25.6184C14.6851 25.656 14.662 25.7069 14.662 25.7618Z" fill="white"/>
</svg>
