<svg width="101" height="49" viewBox="0 0 101 49" fill="none" xmlns="http://www.w3.org/2000/svg">
<path fill-rule="evenodd" clip-rule="evenodd" d="M9.86852 34.1374C9.85817 34.0424 9.8537 33.9862 9.86852 33.9849C10.9604 33.8901 12.3764 33.9231 13.6967 33.9538C14.2559 33.9668 14.8004 33.9795 15.1999 33.9849H85.3207C86.3013 33.9764 87.2232 33.9494 87.9901 33.927C88.6065 33.909 89.1147 33.8941 89.5056 33.8963C89.786 33.8978 89.9728 33.9191 90.0968 33.9849H90.3287V34.503C90.3356 34.6099 90.3368 34.7349 90.336 34.8809C90.3349 35.0752 90.3352 35.2705 90.3355 35.4657C90.336 35.8088 90.3365 36.152 90.3287 36.4946C90.3287 40.7715 90.3287 37.4329 90.3287 41.7224L90.3303 44.5951H9.97829L9.94973 41.7224H9.86845V34.1374L9.86852 34.1374ZM52.9908 0H48.7528V18.3962C48.7528 18.9048 48.7365 19.436 48.7194 19.9954C48.7103 20.2937 48.7009 20.5997 48.6934 20.9133H53.0322C53.0275 20.6959 53.0221 20.4801 53.0168 20.2668C53.0036 19.7385 52.9908 19.2269 52.9908 18.7004V9.91447e-06V0ZM92.0457 2.28186L95.6701 4.47835L86.1357 20.211C85.9983 20.4377 85.8615 20.6719 85.723 20.9133H80.6902C80.964 20.468 81.2457 20.0283 81.5196 19.6007C81.8047 19.1558 82.0807 18.7249 82.3536 18.2746L92.0457 2.28186ZM69.4235 0.19047L73.5327 1.2277L69.0303 19.0645C68.9059 19.5575 68.7917 20.0766 68.6713 20.6231L68.6074 20.9133H64.1409C64.2388 20.5492 64.3395 20.1882 64.4382 19.8345C64.5803 19.3255 64.7179 18.8326 64.8467 18.3221L69.4235 0.19047ZM9.71255 2.28186L6.0882 4.47835L15.6226 20.211C15.76 20.4377 15.8968 20.6719 16.0353 20.9133H21.0681C20.7943 20.468 20.5125 20.0283 20.2386 19.6008C19.9536 19.1558 19.6776 18.7249 19.4047 18.2746L9.71255 2.28186ZM32.3347 0.19047L28.2256 1.2277L32.7279 19.0645C32.8524 19.5575 32.9666 20.0766 33.0869 20.6231L33.1509 20.9133H37.6173C37.5195 20.5492 37.4188 20.1882 37.3201 19.8345C37.178 19.3255 37.0404 18.8326 36.9115 18.3221L32.3347 0.19047ZM93.9121 35.5483L96.4956 35.5445C96.4956 39.5584 96.5363 39.7904 96.5247 44.5966L93.9113 44.5866C93.8502 39.0851 93.7223 41.0389 93.9121 35.5483H93.9121ZM6.30692 44.5981L3.6744 44.6008C3.55775 39.4687 3.58053 41.5489 3.60035 36.3634C3.6034 35.5776 3.74565 35.541 4.5135 35.5439C4.83035 35.5451 5.14549 35.5421 5.46396 35.539C5.75063 35.5363 6.04022 35.5335 6.3323 35.5341L6.30692 44.5981ZM0.404057 47.4108L0.611738 47.8446L1.06415 47.9922C1.58606 48.1624 25.7014 48.2468 49.8526 48.2469C74.1878 48.2471 98.666 48.1617 99.1826 47.9928L99.6346 47.8449L99.8427 47.4114C100.14 46.7927 100.643 35.2952 99.6918 33.6416C98.6168 31.7731 96.4465 31.8491 94.2653 31.9254C93.942 31.9367 93.6183 31.948 93.3069 31.9519C93.2214 31.8399 93.1536 31.7422 93.0938 31.656C92.2972 30.5084 92.2265 30.4065 88.8095 30.4065H11.5648C11.277 30.4065 11.1219 30.4011 10.9623 30.3956C10.1445 30.367 9.23512 30.3352 8.47427 30.62C7.52026 30.9771 7.21676 31.4422 6.895 31.9514C6.59933 31.9472 6.29299 31.9368 5.9868 31.9264C3.85316 31.8537 1.72253 31.781 0.624555 33.5228C-0.61474 35.4886 0.366453 47.3323 0.404057 47.4108Z" fill="white"/>
</svg>
