<svg width="92" height="53" viewBox="0 0 92 53" fill="none" xmlns="http://www.w3.org/2000/svg">
<path d="M21.5596 42.8536C15.5412 42.8536 10.6254 37.9379 10.6254 31.9194C10.6254 28.275 10.63 22.9275 10.63 19.2831H15.4524C15.4524 22.9279 15.4482 28.2754 15.4482 31.9194C15.4482 35.2759 18.2038 38.0312 21.5599 38.0312C26.4769 38.0312 29.3754 38.0312 34.2924 38.0312V42.8555C29.3754 42.8555 26.4769 42.8539 21.5599 42.8539L21.5596 42.8536ZM21.5877 52.5161C15.8829 52.5161 10.6981 50.1833 6.94103 46.4266C3.18368 42.6693 0.851562 37.4844 0.851562 31.7794L1.02195 0.000322741C9.08692 0.000322741 15.2471 0 23.3121 0C29.0172 0 34.2014 2.33277 37.959 6.08948C41.7161 9.84683 43.8194 14.5559 43.8194 20.7368L43.8784 52.5158C35.8131 52.5158 29.6523 52.5161 21.588 52.5161H21.5877ZM5.84434 4.82337L5.67364 31.7794C5.67364 36.1535 7.46519 40.1312 10.3502 43.0165C13.2284 45.8944 17.1916 47.6827 21.5512 47.6931L39.0551 47.6927V20.7368C39.0551 16.3627 37.4343 12.3849 34.5486 9.49956C31.6627 6.61361 27.6852 4.82272 23.3118 4.82272C16.855 4.82272 12.3017 4.82337 5.84434 4.82337ZM22.4313 28.6391C31.2348 28.6391 31.3642 14.4656 22.4313 14.4656C17.5147 14.4656 15.5414 14.4675 10.6251 14.4675V9.64286C15.5418 9.64286 17.5154 9.64286 22.4313 9.64286C37.5695 9.64286 37.5879 33.4612 23.2808 33.4612C21.5777 33.4612 21.7039 33.4612 20.0008 33.4612V28.6368C21.7042 28.6368 20.7299 28.6384 22.4313 28.6388V28.6391Z" fill="#1D7BA7"/>
<path d="M70.9484 42.8536C76.9672 42.8536 81.8826 37.9379 81.8826 31.9194C81.8826 28.275 81.878 22.9275 81.878 19.2831H77.0559C77.0559 22.9279 77.0598 28.2754 77.0598 31.9194C77.0598 35.2759 74.3046 38.0312 70.9481 38.0312C66.0311 38.0312 63.1329 38.0312 58.2159 38.0312V42.8555C63.1329 42.8555 66.0311 42.8539 70.9481 42.8539L70.9484 42.8536ZM70.9206 52.5161C76.6254 52.5161 81.8103 50.1833 85.5673 46.4266C89.3243 42.6693 91.6568 37.4844 91.6568 31.7794L91.4863 0.000322741C83.421 0.000322741 77.2609 0 69.1962 0C63.4911 0 58.3066 2.33277 54.5493 6.08948C50.7919 9.84683 48.6886 14.5559 48.6886 20.7368L48.6299 52.5158C56.6949 52.5158 62.8557 52.5161 70.9203 52.5161H70.9206ZM86.6639 4.82337L86.8344 31.7794C86.8344 36.1535 85.0431 40.1312 82.1578 43.0165C79.2799 45.8944 75.3163 47.6827 70.9571 47.6931L53.4532 47.6927V20.7368C53.4532 16.3627 55.0741 12.3849 57.9594 9.49956C60.8453 6.61361 64.8228 4.82272 69.1966 4.82272C75.6533 4.82272 80.2065 4.82337 86.6639 4.82337ZM70.0767 28.6391C61.2732 28.6391 61.1442 14.4656 70.0767 14.4656C74.9936 14.4656 76.9666 14.4675 81.8829 14.4675V9.64286C76.9662 9.64286 74.9927 9.64286 70.0767 9.64286C54.9385 9.64286 54.9201 33.4612 69.2275 33.4612C70.9306 33.4612 70.8044 33.4612 72.5076 33.4612V28.6368C70.8041 28.6368 71.7785 28.6384 70.0767 28.6388V28.6391Z" fill="#1D7BA7"/>
</svg>
