<svg width="495" height="78" viewBox="0 0 495 78" fill="none" xmlns="http://www.w3.org/2000/svg">
<path d="M374.965 52.0522H348.215L343.072 63.7524H335.712L358.067 14.3001H365.186L387.607 63.7524H380.109L374.965 52.0522ZM372.448 46.2993L361.59 21.635L350.732 46.2993H372.448Z" fill="#FEFEFE"/>
<path d="M247.527 63.7528H240.336V14.3004C247.628 14.3004 251.27 14.3004 258.561 14.3004C281.028 14.3004 281.853 49.6234 258.561 49.6234C256.035 49.6234 256.757 49.6234 254.23 49.6234V42.4686C256.757 42.4686 256.037 42.4712 258.561 42.4716C272.459 42.4716 271.614 21.4523 258.561 21.4523L247.527 21.454C247.527 34.6444 247.527 50.562 247.527 63.7524V63.7528Z" fill="#FEFEFE"/>
<path d="M183.82 14.3004H201.91C217.698 14.3004 225.801 27.1953 226.207 38.5695C226.635 50.5413 218.539 63.7528 201.91 63.7528H183.82V14.3004ZM201.478 56.6881C213.582 56.6881 219.452 47.5169 219.101 38.7251C218.77 30.427 212.892 21.3651 201.478 21.3651H191.01V56.6881H201.478Z" fill="#FEFEFE"/>
<path d="M469.805 21.3651H452.274V14.3004H494.661V21.3651H476.924V63.7528H469.805V21.3651Z" fill="#FEFEFE"/>
<path d="M418.22 63.7528C414.432 63.7528 410.777 63.1653 407.253 61.9911C403.73 60.8166 400.961 59.2942 398.948 57.4253L401.608 51.8162C403.526 53.542 405.983 54.9442 408.979 56.023C411.975 57.1018 415.055 57.6408 418.22 57.6408C422.39 57.6408 425.506 56.9339 427.567 55.5195C433.298 51.5885 430.802 45.3735 424.799 43.2857C415.58 40.0787 400.034 39.099 400.17 28.18C400.17 17.5338 410.325 12.9831 419.442 12.9831C422.414 12.9831 425.339 13.3668 428.215 14.1336C431.091 14.8997 433.56 16.0032 435.621 17.441L433.248 23.1939C431.139 21.8518 428.885 20.8323 426.488 20.1379C424.092 19.4432 421.743 19.0954 419.442 19.0954C414.293 19.0954 407.217 21.4342 407.217 27.8927C407.217 34.7168 422.827 35.2614 429.293 37.8205C437.203 40.9508 440.352 49.3852 435.549 56.6703C434.111 58.8512 431.929 60.5773 429.006 61.8476C426.082 63.1179 422.486 63.7531 418.22 63.7531V63.7528Z" fill="#FEFEFE"/>
<path d="M169.69 56.6884V63.7528H134.367V14.3004H169.69V21.3651H141.558V35.4944H166.798V42.5591H141.558V56.6884H169.69Z" fill="#FEFEFE"/>
<path d="M101.126 63.7505C92.1997 63.7505 84.9096 56.461 84.9096 47.5347C84.9096 42.1296 84.9162 19.7052 84.9162 14.3004H92.0677C92.0677 19.7052 92.0614 42.1296 92.0614 47.5347C92.0614 52.5125 96.1472 56.5986 101.126 56.5986C108.417 56.5986 112.948 56.5986 120.239 56.5986V63.7524C112.948 63.7524 108.417 63.7501 101.126 63.7501L101.126 63.7505Z" fill="#FEFEFE"/>
<path d="M305.997 63.7528C297.071 63.7528 289.781 56.4633 289.781 47.537C289.781 42.1319 289.789 19.7052 289.789 14.3004H296.94C296.94 19.7052 296.933 42.1319 296.933 47.537C296.933 52.5145 301.02 56.6009 305.998 56.6009C313.289 56.6009 317.849 56.5986 325.14 56.5986V63.7524C317.849 63.7524 313.289 63.7524 305.998 63.7524L305.997 63.7528Z" fill="#FEFEFE"/>
<path d="M30.7104 63.5527C21.7847 63.5527 14.4946 56.2632 14.4946 47.3369C14.4946 41.9318 14.5012 34.0017 14.5012 28.597H21.6527C21.6527 34.0017 21.6465 41.9322 21.6465 47.3369C21.6465 52.3144 25.7329 56.4008 30.7104 56.4008C38.0025 56.4008 42.3008 56.4008 49.5925 56.4008V63.5553C42.3008 63.5553 38.0025 63.5527 30.7104 63.5527ZM30.7519 77.8824C22.2918 77.8824 14.6022 74.4233 9.031 68.8514C3.45911 63.2792 0 55.5902 0 47.1292L0.252744 0.000329094C12.2137 0.000329094 21.349 0 33.3096 0C41.7703 0 49.4589 3.45911 55.0311 9.03067C60.603 14.6029 63.7222 21.5873 63.7222 30.7528L63.8094 77.8818C51.8484 77.8818 42.7118 77.8824 30.7519 77.8824ZM7.40429 7.15253L7.15154 47.1292C7.15154 53.6163 9.80799 59.5153 14.0869 63.7949C18.3549 68.0626 24.2332 70.7151 30.6986 70.7302L56.6575 70.7295V30.7528C56.6575 24.2657 54.2538 18.3671 49.9746 14.0875C45.6947 9.80766 39.796 7.15187 33.3096 7.15187C23.7336 7.15187 16.9816 7.15286 7.40462 7.15286L7.40429 7.15253ZM32.0041 42.4719C45.0599 42.4719 45.2511 21.4523 32.0041 21.4523C24.7123 21.4523 21.7867 21.455 14.4949 21.455V14.3005C21.7864 14.3005 24.713 14.3005 32.0041 14.3005C54.4542 14.3005 54.4818 49.6234 33.2635 49.6234C30.7377 49.6234 30.925 49.6234 28.3992 49.6234V42.4689C30.9253 42.4689 29.4806 42.4716 32.0041 42.4719Z" fill="#FEFEFE"/>
</svg>
