<svg width="341" height="80" viewBox="0 0 341 80" fill="none" xmlns="http://www.w3.org/2000/svg">
<path d="M257.776 35.7843H239.387L235.851 43.8279H230.791L246.159 9.83105H251.053L266.467 43.8279H261.312L257.776 35.7843ZM256.045 31.8294L248.581 14.8735L241.117 31.8294H256.045Z" fill="#FEFEFE"/>
<path d="M170.167 43.8279H165.223V9.83105C170.236 9.83105 172.74 9.83105 177.752 9.83105C193.197 9.83105 193.765 34.1144 177.752 34.1144C176.016 34.1144 176.512 34.1144 174.775 34.1144V29.1957C176.512 29.1957 176.017 29.1975 177.752 29.1978C187.306 29.1978 186.726 14.7477 177.752 14.7477L170.167 14.7489C170.167 23.8168 170.167 34.7597 170.167 43.8276V43.8279Z" fill="#FEFEFE"/>
<path d="M126.37 9.83105H138.806C149.661 9.83105 155.231 18.6959 155.51 26.5152C155.804 34.7454 150.239 43.8279 138.806 43.8279H126.37V9.83105ZM138.51 38.9711C146.831 38.9711 150.866 32.6663 150.625 26.6222C150.397 20.9175 146.356 14.6878 138.51 14.6878H131.313V38.9711H138.51Z" fill="#FEFEFE"/>
<path d="M322.975 14.6878H310.923V9.83105H340.063V14.6878H327.869V43.8279H322.975V14.6878Z" fill="#FEFEFE"/>
<path d="M287.512 43.828C284.908 43.828 282.396 43.4241 279.973 42.6169C277.551 41.8095 275.647 40.7629 274.263 39.478L276.092 35.622C277.41 36.8084 279.1 37.7724 281.159 38.514C283.219 39.2556 285.336 39.6262 287.512 39.6262C290.379 39.6262 292.522 39.1403 293.938 38.1679C297.878 35.4654 296.162 31.1929 292.035 29.7576C285.697 27.5529 275.01 26.8794 275.104 19.3729C275.104 12.054 282.085 8.92554 288.353 8.92554C290.395 8.92554 292.406 9.18933 294.383 9.71648C296.36 10.2432 298.058 11.0018 299.475 11.9902L297.843 15.9451C296.394 15.0225 294.844 14.3216 293.196 13.8442C291.549 13.3666 289.934 13.1275 288.353 13.1275C284.812 13.1275 279.948 14.7354 279.948 19.1754C279.948 23.8667 290.68 24.2412 295.125 26.0004C300.562 28.1524 302.727 33.9507 299.425 38.959C298.437 40.4583 296.937 41.645 294.927 42.5183C292.917 43.3916 290.445 43.8282 287.512 43.8282V43.828Z" fill="#FEFEFE"/>
<path d="M116.656 38.9714V43.8279H92.373V9.83105H116.656V14.6878H97.3166V24.4012H114.668V29.2579H97.3166V38.9714H116.656Z" fill="#FEFEFE"/>
<path d="M69.5206 43.8263C63.3843 43.8263 58.3726 38.815 58.3726 32.6785C58.3726 28.9627 58.3771 13.5466 58.3771 9.83105H63.2935C63.2935 13.5466 63.2892 28.9627 63.2892 32.6785C63.2892 36.1006 66.098 38.9096 69.5208 38.9096C74.5332 38.9096 77.6481 38.9096 82.6602 38.9096V43.8276C77.6478 43.8276 74.533 43.826 69.5208 43.826L69.5206 43.8263Z" fill="#FEFEFE"/>
<path d="M210.363 43.8279C204.227 43.8279 199.215 38.8166 199.215 32.6801C199.215 28.9643 199.22 13.5466 199.22 9.83105H204.136C204.136 13.5466 204.132 28.9643 204.132 32.6801C204.132 36.1019 206.941 38.9112 210.363 38.9112C215.376 38.9112 218.51 38.9096 223.523 38.9096V43.8276C218.51 43.8276 215.376 43.8276 210.363 43.8276L210.363 43.8279Z" fill="#FEFEFE"/>
<path d="M14.6283 67.9957L10.3472 75.8833C9.97161 76.5818 9.52297 77.105 9.00194 77.4541C8.48113 77.8032 7.9153 77.9774 7.3049 77.9774C6.81667 77.9774 6.3332 77.8752 5.85447 77.6707L6.30469 76.2467C6.68975 76.3677 7.0092 76.4279 7.26282 76.4279C7.85444 76.4279 8.34199 76.1259 8.72728 75.5207L8.88225 75.2834L4.95312 67.9957H6.91034L9.82568 73.7336L12.8256 67.9957H14.6281H14.6283ZM20.5606 67.9957C21.4147 67.9957 22.1588 68.1353 22.7922 68.4147C23.4259 68.6936 23.9121 69.0936 24.2497 69.6149C24.5881 70.1359 24.7569 70.7549 24.7569 71.4719C24.7569 72.1789 24.5881 72.7958 24.2497 73.3216C23.9121 73.8472 23.4257 74.2499 22.7922 74.5288C22.1585 74.8082 21.4147 74.9478 20.5606 74.9478H18.3353V77.7679H16.5041V67.9952H20.5606V67.9957ZM20.4762 73.4123C21.2737 73.4123 21.8796 73.2451 22.2927 72.9099C22.7058 72.5748 22.9124 72.0956 22.9124 71.4721C22.9124 70.8484 22.7058 70.3692 22.2927 70.0341C21.8796 69.6988 21.2737 69.5316 20.4762 69.5316H18.3355V73.4126H20.4762V73.4123ZM32.8353 75.5069H27.9066L26.9345 77.7684H25.0476L29.484 67.9957H31.286L35.7362 77.7684H33.8215L32.8353 75.5069ZM32.2299 74.0829L30.3709 69.8106L28.5261 74.0829H32.2299ZM46.0403 67.9957V77.7684H44.2372V69.5316H40.3501L40.2658 71.9746C40.2187 73.3427 40.106 74.4528 39.9277 75.3042C39.749 76.1557 39.4628 76.8028 39.0683 77.2444C38.6741 77.6869 38.1296 77.9078 37.4346 77.9078C37.1909 77.9078 36.8572 77.8614 36.4353 77.7682L36.5615 76.1908C36.6837 76.2277 36.8248 76.2465 36.9846 76.2465C37.557 76.2465 37.9628 75.9089 38.2022 75.2343C38.442 74.5594 38.5902 73.4963 38.6459 72.044L38.787 67.9954H46.0403V67.9957ZM53.9719 71.3042C55.1547 71.3042 56.063 71.5676 56.697 72.0931C57.3307 72.6191 57.6479 73.3985 57.6479 74.4316C57.6479 75.5114 57.3004 76.3374 56.6053 76.9096C55.9112 77.4822 54.9343 77.7682 53.6762 77.7682H49.4367V67.9954H51.2396V71.304H53.9717L53.9719 71.3042ZM53.5914 76.3723C54.3054 76.3723 54.8545 76.2096 55.2391 75.8836C55.6241 75.558 55.8169 75.0831 55.8169 74.4596C55.8169 73.2777 55.0753 72.6868 53.5916 72.6868H51.24V76.3723H53.5916H53.5914ZM64.36 77.908C63.3645 77.908 62.4661 77.6917 61.6632 77.2589C60.86 76.8263 60.2313 76.2281 59.7757 75.465C59.3205 74.7017 59.0931 73.8406 59.0931 72.8823C59.0931 71.9234 59.3227 71.0626 59.7824 70.2995C60.2426 69.5364 60.8741 68.9384 61.677 68.5056C62.4792 68.073 63.3783 67.8563 64.374 67.8563C65.1812 67.8563 65.9186 67.9961 66.5846 68.2751C67.2513 68.5545 67.8149 68.9592 68.2749 69.49L67.0921 70.5927C66.3785 69.8294 65.5005 69.4479 64.4584 69.4479C63.7824 69.4479 63.1765 69.5943 62.6415 69.8875C62.1068 70.1807 61.689 70.5877 61.3883 71.1092C61.0883 71.6305 60.9374 72.2219 60.9374 72.8823C60.9374 73.5431 61.0881 74.134 61.3883 74.6553C61.689 75.1763 62.1068 75.5836 62.6415 75.8766C63.1765 76.1698 63.7824 76.3166 64.4584 76.3166C65.5005 76.3166 66.3785 75.9306 67.0921 75.158L68.2749 76.2747C67.8149 76.8053 67.2491 77.21 66.5778 77.489C65.9068 77.7684 65.1674 77.908 64.3598 77.908H64.36ZM73.7653 73.6497H71.9341V77.7684H70.1316V67.9957H71.9341V72.0861H73.8209L76.6519 67.9957H78.5953L75.2295 72.7286L78.7225 77.7684H76.6519L73.7653 73.6497ZM80.1417 67.9957H81.9446V74.9343L87.2402 67.9957H88.9445V77.7684H87.1416V70.8438L81.8459 77.7684H80.1417V67.9957ZM91.8709 67.9957H93.6736V74.9343L98.969 67.9957H100.673V77.7684H98.8706V70.8438L93.5752 77.7684H91.8711V67.9957H91.8709ZM96.2507 67.3396C95.4057 67.3396 94.77 67.1672 94.3428 66.8231C93.9152 66.4785 93.6973 65.976 93.6878 65.3149H94.9695C94.9786 65.6595 95.0917 65.9247 95.3075 66.1109C95.5238 66.2971 95.8376 66.3898 96.2509 66.3898C96.655 66.3898 96.9717 66.2971 97.2014 66.1109C97.4315 65.9247 97.5516 65.6595 97.5609 65.3149H98.8278C98.8188 65.9663 98.5961 66.467 98.1593 66.8161C97.7224 67.1649 97.0864 67.3396 96.2507 67.3396ZM113.225 77.908C112.229 77.908 111.33 77.6917 110.528 77.2589C109.725 76.8263 109.096 76.2281 108.64 75.465C108.185 74.7017 107.958 73.8406 107.958 72.8823C107.958 71.9234 108.187 71.0626 108.648 70.2995C109.108 69.5364 109.739 68.9384 110.541 68.5056C111.344 68.073 112.243 67.8563 113.239 67.8563C114.046 67.8563 114.783 67.9961 115.45 68.2751C116.116 68.5545 116.68 68.9592 117.139 69.49L115.957 70.5927C115.243 69.8294 114.365 69.4479 113.323 69.4479C112.647 69.4479 112.041 69.5943 111.507 69.8875C110.972 70.1807 110.553 70.5877 110.253 71.1092C109.953 71.6305 109.802 72.2219 109.802 72.8823C109.802 73.5431 109.953 74.134 110.253 74.6553C110.553 75.1763 110.971 75.5836 111.507 75.8766C112.041 76.1698 112.647 76.3166 113.323 76.3166C114.365 76.3166 115.243 75.9306 115.957 75.158L117.139 76.2747C116.68 76.8053 116.114 77.21 115.442 77.489C114.771 77.7684 114.032 77.908 113.225 77.908ZM125.488 72.6868C126.911 73.0653 127.418 73.6112 127.418 75.0601C127.418 75.9164 127.099 76.582 126.46 77.0566C125.822 77.5311 124.897 77.7684 123.686 77.7684H119.01V67.9957H123.418C124.526 67.9957 125.39 68.2142 126.01 68.652C126.63 69.0893 126.939 69.7081 126.939 70.5085C126.939 71.4732 126.387 72.3128 125.489 72.6868H125.488ZM120.813 72.1703H123.263C123.855 72.1703 124.151 72.0535 124.461 71.8207C124.771 71.5884 125.203 71.2443 125.203 70.7877C125.203 70.3316 124.925 69.9852 124.615 69.7479C124.306 69.5108 123.855 69.3918 123.263 69.3918H120.813V72.1703ZM123.629 76.3723C124.925 76.3723 125.573 75.8885 125.573 74.9205C125.573 73.9709 124.925 73.4967 123.629 73.4967H120.813V76.3725H123.629V76.3723ZM136.896 76.2469V77.7684H129.502V67.9957H136.699V69.5171H131.333V72.0583H136.093V73.5519H131.333V76.2465H136.896L136.896 76.2469ZM146.701 69.5316H143.434V77.7684H141.617V69.5316H138.363V67.9959H146.701V69.5316H146.701ZM153.309 77.908C152.304 77.908 151.398 77.6917 150.591 77.2589C149.783 76.8263 149.149 76.2259 148.69 75.4582C148.23 74.6902 147.999 73.8316 147.999 72.8823C147.999 71.9332 148.23 71.0746 148.69 70.3065C149.149 69.5389 149.783 68.9384 150.591 68.5056C151.398 68.073 152.304 67.8563 153.309 67.8563C154.313 67.8563 155.219 68.073 156.027 68.5056C156.834 68.9384 157.468 69.5364 157.928 70.2995C158.388 71.0626 158.618 71.9234 158.618 72.8823C158.618 73.8406 158.388 74.7017 157.928 75.465C157.468 76.2281 156.834 76.8263 156.027 77.2589C155.219 77.6917 154.313 77.908 153.309 77.908ZM153.309 76.3166C153.966 76.3166 154.558 76.1698 155.083 75.8766C155.609 75.5836 156.022 75.1741 156.323 74.6483C156.623 74.1221 156.774 73.5334 156.774 72.882C156.774 72.2305 156.623 71.6418 156.323 71.116C156.022 70.5902 155.609 70.1805 155.083 69.8873C154.558 69.5941 153.966 69.4477 153.309 69.4477C152.652 69.4477 152.06 69.5941 151.534 69.8873C151.008 70.1805 150.595 70.5902 150.295 71.116C149.995 71.6418 149.845 72.2305 149.845 72.882C149.845 73.5334 149.995 74.1221 150.295 74.6483C150.595 75.1739 151.008 75.5834 151.534 75.8766C152.06 76.1698 152.652 76.3166 153.309 76.3166ZM168.268 69.5316H165V77.7684H163.184V69.5316H158.714V67.9959H168.268V69.5316ZM177.848 76.2469V77.7684H170.454V67.9957H177.651V69.5171H172.285V72.0583H177.045V73.5519H172.285V76.2465H177.848V76.2469ZM181.526 67.9959L183.85 71.2628L186.174 67.9959H188.315L185.005 72.687L188.582 77.7686H186.413L183.85 74.2087L181.301 77.7686H179.189L182.752 72.7567L179.414 67.9959H181.526ZM198.719 67.9959V77.7686H196.889V73.5802H191.791V77.7686H189.96V67.9959H191.791V72.0307H196.889V67.9959H198.719ZM201.646 67.9959H203.449V74.9345L208.745 67.9959H210.449V77.7686H208.646V70.8441L203.351 77.7686H201.646V67.9959H201.646ZM221.073 67.9959V77.7686H219.257V74.0831C218.327 74.4273 217.445 74.5997 216.609 74.5997C215.35 74.5997 214.381 74.2994 213.7 73.6988C213.02 73.0985 212.68 72.2354 212.68 71.1092V67.9959H214.496V70.9137C214.496 71.6029 214.698 72.1284 215.102 72.4915C215.506 72.8542 216.083 73.0361 216.834 73.0361C217.689 73.0361 218.496 72.8637 219.257 72.5194V67.9959H221.073H221.073ZM231.379 76.2469V77.7684H223.986V67.9957H231.182V69.5171H225.816V72.0583H230.577V73.5519H225.816V76.2465H231.379V76.2469ZM238.066 77.908C237.071 77.908 236.172 77.6917 235.37 77.2589C234.566 76.8263 233.938 76.2281 233.482 75.465C233.027 74.7017 232.799 73.8406 232.799 72.8823C232.799 71.9234 233.029 71.0626 233.489 70.2995C233.949 69.5364 234.581 68.9384 235.384 68.5056C236.186 68.073 237.085 67.8563 238.081 67.8563C238.888 67.8563 239.625 67.9961 240.291 68.2751C240.957 68.5545 241.521 68.9592 241.981 69.49L240.799 70.5927C240.085 69.8294 239.207 69.4479 238.165 69.4479C237.489 69.4479 236.883 69.5943 236.348 69.8875C235.813 70.1807 235.395 70.5877 235.095 71.1092C234.794 71.6305 234.644 72.2219 234.644 72.8823C234.644 73.5431 234.794 74.134 235.095 74.6553C235.395 75.1763 235.813 75.5836 236.348 75.8766C236.883 76.1698 237.489 76.3166 238.165 76.3166C239.207 76.3166 240.085 75.9306 240.799 75.158L241.981 76.2747C241.521 76.8053 240.956 77.21 240.284 77.489C239.613 77.7684 238.874 77.908 238.066 77.908H238.066ZM247.471 73.6497H245.64V77.7684H243.838V67.9957H245.64V72.0861H247.527L250.358 67.9957H252.301L248.936 72.7286L252.429 77.7684H250.358L247.471 73.6497ZM253.848 67.9957H255.651V74.9343L260.947 67.9957H262.651V77.7684H260.848V70.8438L255.552 77.7684H253.848V67.9957ZM265.577 67.9957H267.38V74.9343L272.675 67.9957H274.379V77.7684H272.576V70.8438L267.281 77.7684H265.577V67.9957H265.577ZM269.957 67.3396C269.112 67.3396 268.476 67.1672 268.049 66.8231C267.621 66.4785 267.403 65.976 267.394 65.3149H268.676C268.685 65.6595 268.798 65.9247 269.013 66.1109C269.229 66.2971 269.544 66.3898 269.957 66.3898C270.361 66.3898 270.678 66.2971 270.907 66.1109C271.137 65.9247 271.258 65.6595 271.267 65.3149H272.534C272.525 65.9663 272.302 66.467 271.866 66.8161C271.429 67.1649 270.793 67.3396 269.957 67.3396H269.957ZM288.948 72.6723C289.539 72.8585 290.001 73.1592 290.335 73.5732C290.669 73.9872 290.835 74.4736 290.835 75.032C290.835 75.6182 290.643 76.1277 290.258 76.5607C289.872 76.9935 289.359 77.3261 288.715 77.5591C288.072 77.7917 287.371 77.9078 286.61 77.9078C285.953 77.9078 285.293 77.817 284.631 77.6356C283.97 77.4541 283.357 77.182 282.794 76.8191L283.385 75.4926C283.817 75.7813 284.296 76.0023 284.822 76.1557C285.347 76.3096 285.868 76.3863 286.385 76.3863C287.126 76.3863 287.744 76.2417 288.237 75.9535C288.729 75.6648 288.976 75.2693 288.976 74.7668C288.976 74.3388 288.798 74.0128 288.44 73.7897C288.084 73.5662 287.591 73.4542 286.962 73.4542H284.667V72.0305H286.821C287.366 72.0305 287.793 71.9187 288.103 71.6954C288.413 71.4721 288.568 71.1694 288.568 70.7877C288.568 70.3316 288.359 69.9785 287.941 69.7271C287.523 69.4757 286.991 69.3497 286.343 69.3497C285.901 69.3497 285.446 69.4128 284.977 69.5386C284.507 69.6637 284.066 69.8481 283.653 70.09L283.075 68.6242C283.583 68.3543 284.12 68.1516 284.688 68.0167C285.256 67.8819 285.822 67.8145 286.385 67.8145C287.117 67.8145 287.791 67.9262 288.406 68.1493C289.021 68.3728 289.511 68.6916 289.878 69.1054C290.244 69.5196 290.427 70.0061 290.427 70.5649C290.427 71.0486 290.296 71.4721 290.033 71.835C289.77 72.1981 289.408 72.4771 288.948 72.6723H288.948ZM299.439 75.5069H294.511L293.538 77.7684H291.652L296.087 67.9957H297.89L302.341 77.7684H300.425L299.439 75.5069ZM298.834 74.0829L296.975 69.8106L295.13 74.0829H298.834ZM310.797 72.8381C311.426 73.0053 311.905 73.2913 312.233 73.6965C312.562 74.1012 312.726 74.6062 312.726 75.2112C312.726 76.0675 312.407 76.7331 311.768 77.2075C311.13 77.6822 310.205 77.9195 308.994 77.9195H304.318V68.1468H308.726C309.835 68.1468 310.698 68.3656 311.318 68.8031C311.938 69.2404 312.248 69.8592 312.248 70.6597C312.248 71.1716 312.123 71.6135 311.874 71.9859C311.626 72.3581 311.266 72.6422 310.797 72.8379L310.797 72.8381ZM306.121 72.3214H308.571C309.163 72.3214 309.613 72.2049 309.923 71.9721C310.233 71.7395 310.388 71.3954 310.388 70.9388C310.388 70.483 310.234 70.1364 309.923 69.899C309.613 69.6617 309.163 69.5429 308.571 69.5429H306.121V72.3212V72.3214ZM308.937 76.5236C310.233 76.5236 310.881 76.0397 310.881 75.0716C310.881 74.1223 310.233 73.6479 308.937 73.6479H306.121V76.5236H308.937ZM319.678 78.0593C318.673 78.0593 317.767 77.8428 316.96 77.41C316.153 76.9777 315.518 76.3772 315.058 75.6094C314.599 74.8413 314.368 73.9827 314.368 73.0332C314.368 72.0841 314.599 71.2255 315.058 70.4574C315.518 69.6895 316.153 69.0893 316.96 68.6563C317.767 68.2239 318.673 68.0072 319.678 68.0072C320.683 68.0072 321.589 68.2239 322.396 68.6563C323.203 69.0893 323.837 69.6871 324.297 70.4502C324.757 71.2135 324.987 72.0744 324.987 73.0329C324.987 73.9915 324.757 74.8526 324.297 75.6157C323.837 76.379 323.203 76.9772 322.396 77.4096C321.589 77.8424 320.683 78.0589 319.678 78.0589V78.0593ZM319.678 76.4677C320.335 76.4677 320.926 76.3209 321.452 76.0279C321.978 75.7347 322.391 75.3254 322.692 74.7996C322.992 74.2734 323.143 73.685 323.143 73.0334C323.143 72.382 322.992 71.7931 322.692 71.2676C322.391 70.7416 321.978 70.3318 321.452 70.0389C320.926 69.7456 320.335 69.5993 319.678 69.5993C319.02 69.5993 318.429 69.7456 317.903 70.0389C317.377 70.3318 316.964 70.7416 316.664 71.2676C316.363 71.7931 316.213 72.382 316.213 73.0334C316.213 73.685 316.363 74.2734 316.664 74.7996C316.964 75.3254 317.377 75.7347 317.903 76.0279C318.429 76.3209 319.02 76.4677 319.678 76.4677ZM336.812 76.3842V80H335.121V77.92H327.559V80H325.855L325.869 76.3842H326.291C326.911 76.3564 327.345 75.9026 327.594 75.023C327.843 74.1431 327.995 72.8845 328.052 71.2465L328.164 68.147H335.389V76.3842H336.812H336.812ZM329.657 71.414C329.61 72.68 329.507 73.7341 329.347 74.5764C329.187 75.4184 328.934 76.0211 328.587 76.3842H333.587V69.6828H329.728L329.657 71.4137V71.414Z" fill="#FEFEFE"/>
<path d="M21.1124 43.6903C14.9763 43.6903 9.96457 38.6791 9.96457 32.5425C9.96457 28.8267 9.96909 23.375 9.96909 19.6594H14.8855C14.8855 23.375 14.8812 28.827 14.8812 32.5425C14.8812 35.9644 17.6905 38.7737 21.1124 38.7737C26.1254 38.7737 29.0804 38.7737 34.0932 38.7737V43.6921C29.0804 43.6921 26.1254 43.6903 21.1124 43.6903ZM21.1409 53.5415C15.3249 53.5415 10.0385 51.1635 6.20851 47.333C2.37802 43.5023 0 38.2164 0 32.3998L0.173753 0.000226241C8.39649 0.000226241 14.6767 0 22.8992 0C28.7157 0 34.0013 2.37802 37.832 6.20828C41.6625 10.039 43.8068 14.8405 43.8068 21.1416L43.8668 53.5411C35.6441 53.5411 29.3629 53.5415 21.1409 53.5415ZM5.0902 4.91712L4.91645 32.3998C4.91645 36.8594 6.74266 40.9148 9.68425 43.8568C12.6184 46.7907 16.6595 48.6142 21.1042 48.6246L38.9501 48.6242V21.1416C38.9501 16.6819 37.2977 12.6267 34.3559 9.6847C31.4136 6.74244 27.3584 4.91667 22.8992 4.91667C16.3161 4.91667 11.6743 4.91735 5.09043 4.91735L5.0902 4.91712ZM22.0017 29.198C30.9772 29.198 31.1086 14.7478 22.0017 14.7478C16.9889 14.7478 14.9776 14.7496 9.96479 14.7496V9.83108C14.9774 9.83108 16.9894 9.83108 22.0017 9.83108C37.4354 9.83108 37.4544 34.1144 22.8675 34.1144C21.1311 34.1144 21.2599 34.1144 19.5235 34.1144V29.196C21.2601 29.196 20.2669 29.1978 22.0017 29.198Z" fill="#FEFEFE"/>
</svg>
