<svg width="42" height="52" viewBox="0 0 42 52" fill="none" xmlns="http://www.w3.org/2000/svg">
<path d="M20.2139 42.4324C14.3389 42.4324 9.54051 37.5655 9.54051 31.6056C9.54051 27.9968 9.54484 22.702 9.54484 19.0934H14.2521C14.2521 22.702 14.248 27.997 14.248 31.6056C14.248 34.9289 16.9376 37.6573 20.2139 37.6573C25.0136 37.6573 27.8428 37.6573 32.6423 37.6573V42.4342C27.8428 42.4342 25.0136 42.4324 20.2139 42.4324ZM20.2412 52C14.6727 52 9.61134 49.6904 5.9443 45.9702C2.27682 42.2498 0 37.1161 0 31.4669L0.166359 0.000219727C8.03917 0.000219727 14.0521 0 21.9247 0C27.4936 0 32.5544 2.30955 36.2221 6.02954C39.8895 9.74996 41.9426 14.4132 41.9426 20.5329L42 51.9996C34.1272 51.9996 28.1134 52 20.2412 52ZM4.87358 4.77555L4.70722 31.4669C4.70722 35.7982 6.45572 39.7368 9.27213 42.5941C12.0814 45.4436 15.9505 47.2146 20.2061 47.2247L37.2926 47.2242V20.5329C37.2926 16.2016 35.7104 12.2632 32.8938 9.40587C30.0767 6.54831 26.1942 4.77511 21.9247 4.77511C15.6217 4.77511 11.1775 4.77577 4.8738 4.77577L4.87358 4.77555ZM21.0654 28.3573C29.6589 28.3573 29.7847 14.3231 21.0654 14.3231C16.2659 14.3231 14.3402 14.3249 9.54073 14.3249V9.54803C14.34 9.54803 16.2664 9.54803 21.0654 9.54803C35.8423 9.54803 35.8605 33.1322 21.8944 33.1322C20.2319 33.1322 20.3551 33.1322 18.6926 33.1322V28.3554C20.3554 28.3554 19.4044 28.3571 21.0654 28.3573Z" fill="#FEFEFE"/>
</svg>
