<svg width="74" height="1417" viewBox="0 0 74 1417" fill="none" xmlns="http://www.w3.org/2000/svg">
<path d="M37 0.333334C22.2724 0.333335 10.3333 12.2724 10.3333 27C10.3333 41.7276 22.2724 53.6667 37 53.6667C51.7276 53.6667 63.6667 41.7276 63.6667 27C63.6667 12.2724 51.7276 0.333333 37 0.333334ZM33.4645 1415.54C35.4171 1417.49 38.583 1417.49 40.5356 1415.54L72.3554 1383.72C74.308 1381.76 74.308 1378.6 72.3554 1376.64C70.4028 1374.69 67.237 1374.69 65.2843 1376.64L37.0001 1404.93L8.71579 1376.64C6.76317 1374.69 3.59734 1374.69 1.64472 1376.64C-0.307901 1378.6 -0.307901 1381.76 1.64472 1383.72L33.4645 1415.54ZM32 27L32.0001 1412L42.0001 1412L42 27L32 27Z" fill="#056996"/>
</svg>
