<svg width="56" height="56" viewBox="0 0 56 56" fill="none" xmlns="http://www.w3.org/2000/svg">
<g clip-path="url(#clip0_42_135)">
<path d="M28.3572 55.2857C43.6239 55.2857 56 42.9096 56 27.6429C56 12.3761 43.6239 0 28.3572 0C13.0904 0 0.714294 12.3761 0.714294 27.6429C0.714294 42.9096 13.0904 55.2857 28.3572 55.2857Z" fill="white"/>
<path d="M37.2543 19.5556C36.4547 19.0396 35.7687 18.366 35.2381 17.5759C34.7076 16.7858 34.3437 15.8959 34.1686 14.9605C34.0936 14.5413 34.0583 14.116 34.0632 13.6902H29.0154V33.8939C28.9755 34.9902 28.5123 36.0284 27.723 36.7903C26.9337 37.5522 25.8799 37.9786 24.7829 37.9799C24.097 37.981 23.4205 37.8207 22.808 37.5119C21.972 37.0704 21.3075 36.3624 20.9198 35.5002C20.532 34.6379 20.4434 33.6709 20.6679 32.7526C20.8924 31.8343 21.4171 31.0172 22.1589 30.4311C22.9007 29.845 23.8169 29.5234 24.7623 29.5173C25.1871 29.5205 25.609 29.5864 26.0146 29.7128V24.5468C25.6036 24.4821 25.1886 24.4469 24.7726 24.4413C22.796 24.4373 20.8698 25.0647 19.2749 26.2322C17.68 27.3998 16.4998 29.0462 15.9063 30.9316C14.726 34.6782 15.9192 38.7796 19.0254 41.1376C19.1797 41.2662 19.3006 41.3408 19.4446 41.441C21.0155 42.5032 22.8767 43.0529 24.7726 43.0148C27.2344 43.0148 29.5957 42.0382 31.3384 40.2994C33.0811 38.5605 34.0628 36.2014 34.0683 33.7396V23.4668C36.114 24.9331 38.5688 25.7193 41.0857 25.7142V20.7102C39.7229 20.7097 38.3904 20.3082 37.2543 19.5556Z" fill="#1D7BA7"/>
</g>
<defs>
<clipPath id="clip0_42_135">
<rect width="55.2857" height="55.2857" fill="white" transform="translate(0.714294)"/>
</clipPath>
</defs>
</svg>
