<svg width="77" height="77" viewBox="0 0 77 77" fill="none" xmlns="http://www.w3.org/2000/svg">
<path d="M38.4295 76.1714C59.4636 76.1714 76.5152 59.1199 76.5152 38.0857C76.5152 17.0516 59.4636 0 38.4295 0C17.3953 0 0.34375 17.0516 0.34375 38.0857C0.34375 59.1199 17.3953 76.1714 38.4295 76.1714Z" fill="#1D7BA7"/>
<path d="M50.6876 26.9434C49.5859 26.2325 48.6408 25.3044 47.9098 24.2158C47.1788 23.1273 46.6774 21.9012 46.4362 20.6124C46.3329 20.0348 46.2843 19.4488 46.291 18.8622H39.3363V46.6984C39.2813 48.2089 38.6431 49.6393 37.5556 50.689C36.4682 51.7388 35.0162 52.3263 33.5048 52.328C32.5598 52.3295 31.6277 52.1086 30.7839 51.6832C29.6321 51.075 28.7165 50.0994 28.1823 48.9115C27.6481 47.7235 27.5259 46.3912 27.8352 45.1259C28.1445 43.8607 28.8676 42.7349 29.8895 41.9274C30.9115 41.1199 32.1739 40.6768 33.4764 40.6685C34.0617 40.6729 34.6431 40.7636 35.2018 40.9377V33.8201C34.6356 33.7311 34.0637 33.6825 33.4906 33.6749C30.7673 33.6693 28.1135 34.5338 25.916 36.1423C23.7186 37.7509 22.0925 40.0194 21.2748 42.617C19.6487 47.779 21.2925 53.4299 25.5723 56.6786C25.7849 56.8558 25.9514 56.9585 26.1498 57.0967C28.3142 58.5601 30.8785 59.3175 33.4906 59.2649C36.8824 59.2649 40.1358 57.9195 42.5368 55.5238C44.9379 53.128 46.2905 49.8777 46.298 46.4858V32.3321C49.1165 34.3524 52.4987 35.4356 55.9665 35.4286V28.5342C54.0889 28.5335 52.253 27.9803 50.6876 26.9434Z" fill="white"/>
</svg>
