<svg width="56" height="56" viewBox="0 0 56 56" fill="none" xmlns="http://www.w3.org/2000/svg">
<g clip-path="url(#clip0_42_127)">
<path d="M27.6429 55.2857C42.9096 55.2857 55.2857 42.9096 55.2857 27.6429C55.2857 12.3761 42.9096 0 27.6429 0C12.3761 0 0 12.3761 0 27.6429C0 42.9096 12.3761 55.2857 27.6429 55.2857Z" fill="white"/>
<path d="M28.656 37.8359C17.9383 37.8359 11.8286 30.4868 11.5714 18.2571H16.938C17.1154 27.2314 21.0729 31.0345 24.2074 31.8188V18.2571H29.2654V25.9971C32.3511 25.6654 35.6143 22.1399 36.7097 18.2571H41.7677C40.9243 23.0374 37.3963 26.5654 34.8891 28.0157C36.85 28.9894 38.5819 30.3683 39.9702 32.0612C41.3586 33.7541 42.3718 35.7224 42.9429 37.8359H37.3783C36.1826 34.1125 33.2023 31.2325 29.2654 30.8417V37.8359H28.656Z" fill="#1D7BA7"/>
</g>
<defs>
<clipPath id="clip0_42_127">
<rect width="55.2857" height="55.2857" fill="white"/>
</clipPath>
</defs>
</svg>
