<svg width="77" height="77" viewBox="0 0 77 77" fill="none" xmlns="http://www.w3.org/2000/svg">
<path d="M38.0857 76.1714C59.1199 76.1714 76.1714 59.1199 76.1714 38.0857C76.1714 17.0516 59.1199 0 38.0857 0C17.0516 0 0 17.0516 0 38.0857C0 59.1199 17.0516 76.1714 38.0857 76.1714Z" fill="#1D7BA7"/>
<path d="M39.4811 52.1296C24.7145 52.1296 16.2967 42.0041 15.9424 25.1543H23.3363C23.5808 37.5189 29.0332 42.7588 33.352 43.8393V25.1543H40.3208V35.8183C44.5722 35.3613 49.0681 30.504 50.5774 25.1543H57.5462C56.3841 31.7405 51.5233 36.6013 48.069 38.5994C50.7707 39.9411 53.1568 41.8409 55.0696 44.1733C56.9825 46.5057 58.3784 49.2176 59.1652 52.1296H51.4985C49.8511 46.9996 45.7449 43.0316 40.3208 42.493V52.1296H39.4811Z" fill="white"/>
</svg>
