<svg width="77" height="77" viewBox="0 0 77 77" fill="none" xmlns="http://www.w3.org/2000/svg">
<path d="M38.2576 76.1714C59.2918 76.1714 76.3433 59.1199 76.3433 38.0857C76.3433 17.0516 59.2918 0 38.2576 0C17.2234 0 0.171875 17.0516 0.171875 38.0857C0.171875 59.1199 17.2234 76.1714 38.2576 76.1714Z" fill="#1D7BA7"/>
<path d="M57.0451 28.4066C56.8206 27.57 56.38 26.8071 55.7674 26.1946C55.1549 25.5821 54.3921 25.1415 53.5554 24.9169C50.4802 24.0914 38.1334 24.0914 38.1334 24.0914C38.1334 24.0914 25.7865 24.0914 22.7078 24.9169C21.8721 25.1434 21.1103 25.5847 20.4981 26.1969C19.8858 26.8092 19.4445 27.571 19.218 28.4066C18.3926 31.4854 18.3926 37.9086 18.3926 37.9086C18.3926 37.9086 18.3926 44.3318 19.218 47.4105C19.4445 48.2462 19.8858 49.008 20.4981 49.6202C21.1103 50.2324 21.8721 50.6737 22.7078 50.9002C25.7865 51.7257 38.1334 51.7257 38.1334 51.7257C38.1334 51.7257 50.4767 51.7257 53.5554 50.9002C54.3921 50.6757 55.1549 50.235 55.7674 49.6225C56.38 49.01 56.8206 48.2471 57.0451 47.4105C57.8706 44.3318 57.8706 37.9086 57.8706 37.9086C57.8706 37.9086 57.8706 31.4854 57.0451 28.4066ZM34.1831 43.8287V31.9885L44.4574 37.9086L34.1831 43.8287Z" fill="white"/>
</svg>
