<svg width="56" height="56" viewBox="0 0 56 56" fill="none" xmlns="http://www.w3.org/2000/svg">
<g clip-path="url(#clip0_42_131)">
<path d="M27.8143 55.2857C43.081 55.2857 55.4572 42.9096 55.4572 27.6429C55.4572 12.3761 43.081 0 27.8143 0C12.5476 0 0.171448 12.3761 0.171448 27.6429C0.171448 42.9096 12.5476 55.2857 27.8143 55.2857Z" fill="white"/>
<path d="M41.4506 20.6176C41.2876 20.0104 40.9678 19.4567 40.5232 19.0121C40.0787 18.5675 39.525 18.2477 38.9178 18.0847C36.6858 17.4856 27.7243 17.4856 27.7243 17.4856C27.7243 17.4856 18.7629 17.4856 16.5283 18.0847C15.9218 18.2491 15.3689 18.5694 14.9245 19.0138C14.4801 19.4581 14.1599 20.0111 13.9955 20.6176C13.3963 22.8522 13.3963 27.5142 13.3963 27.5142C13.3963 27.5142 13.3963 32.1762 13.9955 34.4107C14.1599 35.0173 14.4801 35.5702 14.9245 36.0145C15.3689 36.4589 15.9218 36.7792 16.5283 36.9436C18.7629 37.5427 27.7243 37.5427 27.7243 37.5427C27.7243 37.5427 36.6832 37.5427 38.9178 36.9436C39.525 36.7806 40.0787 36.4608 40.5232 36.0162C40.9678 35.5717 41.2876 35.018 41.4506 34.4107C42.0498 32.1762 42.0497 27.5142 42.0497 27.5142C42.0497 27.5142 42.0498 22.8522 41.4506 20.6176ZM24.8572 31.811V23.2173L32.3143 27.5142L24.8572 31.811Z" fill="#1D7BA7"/>
</g>
<defs>
<clipPath id="clip0_42_131">
<rect width="55.2857" height="55.2857" fill="white" transform="translate(0.171448)"/>
</clipPath>
</defs>
</svg>
